<?xml version="1.0" encoding="utf-8" standalone="no"?>
<!DOCTYPE svg PUBLIC "-//W3C//DTD SVG 1.1//EN"
  "http://www.w3.org/Graphics/SVG/1.1/DTD/svg11.dtd">
<svg xmlns:xlink="http://www.w3.org/1999/xlink" width="633.045313pt" height="641.585938pt" viewBox="0 0 633.045313 641.585938" xmlns="http://www.w3.org/2000/svg" version="1.1">
 <metadata>
  <rdf:RDF xmlns:dc="http://purl.org/dc/elements/1.1/" xmlns:cc="http://creativecommons.org/ns#" xmlns:rdf="http://www.w3.org/1999/02/22-rdf-syntax-ns#">
   <cc:Work>
    <dc:type rdf:resource="http://purl.org/dc/dcmitype/StillImage"/>
    <dc:date>2024-06-10T12:07:07.263878</dc:date>
    <dc:format>image/svg+xml</dc:format>
    <dc:creator>
     <cc:Agent>
      <dc:title>Matplotlib v3.5.1, https://matplotlib.org/</dc:title>
     </cc:Agent>
    </dc:creator>
   </cc:Work>
  </rdf:RDF>
 </metadata>
 <defs>
  <style type="text/css">*{stroke-linejoin: round; stroke-linecap: butt}</style>
 </defs>
 <g id="figure_1">
  <g id="patch_1">
   <path d="M 0 641.585938 
L 633.045313 641.585938 
L 633.045313 0 
L 0 0 
z
" style="fill: #ffffff"/>
  </g>
  <g id="axes_1">
   <g id="patch_2">
    <path d="M 67.845313 579.834375 
L 625.845312 579.834375 
L 625.845312 36.234375 
L 67.845313 36.234375 
z
" style="fill: #ffffff"/>
   </g>
   <g id="patch_3">
    <path d="M 74.196386 579.834375 
L 81.317715 579.834375 
L 81.317715 579.739647 
L 74.196386 579.739647 
z
" clip-path="url(#p398b2bfc86)" style="fill: #1f77b4; fill-opacity: 0.75; stroke: #000000; stroke-width: 0.507273; stroke-linejoin: miter"/>
   </g>
   <g id="patch_4">
    <path d="M 81.317715 579.834375 
L 88.439044 579.834375 
L 88.439044 579.787011 
L 81.317715 579.787011 
z
" clip-path="url(#p398b2bfc86)" style="fill: #1f77b4; fill-opacity: 0.75; stroke: #000000; stroke-width: 0.507273; stroke-linejoin: miter"/>
   </g>
   <g id="patch_5">
    <path d="M 88.439044 579.834375 
L 95.560373 579.834375 
L 95.560373 579.834375 
L 88.439044 579.834375 
z
" clip-path="url(#p398b2bfc86)" style="fill: #1f77b4; fill-opacity: 0.75; stroke: #000000; stroke-width: 0.507273; stroke-linejoin: miter"/>
   </g>
   <g id="patch_6">
    <path d="M 95.560373 579.834375 
L 102.681701 579.834375 
L 102.681701 579.692283 
L 95.560373 579.692283 
z
" clip-path="url(#p398b2bfc86)" style="fill: #1f77b4; fill-opacity: 0.75; stroke: #000000; stroke-width: 0.507273; stroke-linejoin: miter"/>
   </g>
   <g id="patch_7">
    <path d="M 102.681701 579.834375 
L 109.80303 579.834375 
L 109.80303 579.502827 
L 102.681701 579.502827 
z
" clip-path="url(#p398b2bfc86)" style="fill: #1f77b4; fill-opacity: 0.75; stroke: #000000; stroke-width: 0.507273; stroke-linejoin: miter"/>
   </g>
   <g id="patch_8">
    <path d="M 109.80303 579.834375 
L 116.924359 579.834375 
L 116.924359 579.455463 
L 109.80303 579.455463 
z
" clip-path="url(#p398b2bfc86)" style="fill: #1f77b4; fill-opacity: 0.75; stroke: #000000; stroke-width: 0.507273; stroke-linejoin: miter"/>
   </g>
   <g id="patch_9">
    <path d="M 116.924359 579.834375 
L 124.045688 579.834375 
L 124.045688 579.502827 
L 116.924359 579.502827 
z
" clip-path="url(#p398b2bfc86)" style="fill: #1f77b4; fill-opacity: 0.75; stroke: #000000; stroke-width: 0.507273; stroke-linejoin: miter"/>
   </g>
   <g id="patch_10">
    <path d="M 124.045688 579.834375 
L 131.167017 579.834375 
L 131.167017 579.408099 
L 124.045688 579.408099 
z
" clip-path="url(#p398b2bfc86)" style="fill: #1f77b4; fill-opacity: 0.75; stroke: #000000; stroke-width: 0.507273; stroke-linejoin: miter"/>
   </g>
   <g id="patch_11">
    <path d="M 131.167017 579.834375 
L 138.288345 579.834375 
L 138.288345 578.697639 
L 131.167017 578.697639 
z
" clip-path="url(#p398b2bfc86)" style="fill: #1f77b4; fill-opacity: 0.75; stroke: #000000; stroke-width: 0.507273; stroke-linejoin: miter"/>
   </g>
   <g id="patch_12">
    <path d="M 138.288345 579.834375 
L 145.409674 579.834375 
L 145.409674 578.460819 
L 138.288345 578.460819 
z
" clip-path="url(#p398b2bfc86)" style="fill: #1f77b4; fill-opacity: 0.75; stroke: #000000; stroke-width: 0.507273; stroke-linejoin: miter"/>
   </g>
   <g id="patch_13">
    <path d="M 145.409674 579.834375 
L 152.531003 579.834375 
L 152.531003 577.797723 
L 145.409674 577.797723 
z
" clip-path="url(#p398b2bfc86)" style="fill: #1f77b4; fill-opacity: 0.75; stroke: #000000; stroke-width: 0.507273; stroke-linejoin: miter"/>
   </g>
   <g id="patch_14">
    <path d="M 152.531003 579.834375 
L 159.652332 579.834375 
L 159.652332 577.560903 
L 152.531003 577.560903 
z
" clip-path="url(#p398b2bfc86)" style="fill: #1f77b4; fill-opacity: 0.75; stroke: #000000; stroke-width: 0.507273; stroke-linejoin: miter"/>
   </g>
   <g id="patch_15">
    <path d="M 159.652332 579.834375 
L 166.773661 579.834375 
L 166.773661 576.897807 
L 159.652332 576.897807 
z
" clip-path="url(#p398b2bfc86)" style="fill: #1f77b4; fill-opacity: 0.75; stroke: #000000; stroke-width: 0.507273; stroke-linejoin: miter"/>
   </g>
   <g id="patch_16">
    <path d="M 166.773661 579.834375 
L 173.89499 579.834375 
L 173.89499 574.908519 
L 166.773661 574.908519 
z
" clip-path="url(#p398b2bfc86)" style="fill: #1f77b4; fill-opacity: 0.75; stroke: #000000; stroke-width: 0.507273; stroke-linejoin: miter"/>
   </g>
   <g id="patch_17">
    <path d="M 173.89499 579.834375 
L 181.016318 579.834375 
L 181.016318 574.10333 
L 173.89499 574.10333 
z
" clip-path="url(#p398b2bfc86)" style="fill: #1f77b4; fill-opacity: 0.75; stroke: #000000; stroke-width: 0.507273; stroke-linejoin: miter"/>
   </g>
   <g id="patch_18">
    <path d="M 181.016318 579.834375 
L 188.137647 579.834375 
L 188.137647 572.871866 
L 181.016318 572.871866 
z
" clip-path="url(#p398b2bfc86)" style="fill: #1f77b4; fill-opacity: 0.75; stroke: #000000; stroke-width: 0.507273; stroke-linejoin: miter"/>
   </g>
   <g id="patch_19">
    <path d="M 188.137647 579.834375 
L 195.258976 579.834375 
L 195.258976 570.882578 
L 188.137647 570.882578 
z
" clip-path="url(#p398b2bfc86)" style="fill: #1f77b4; fill-opacity: 0.75; stroke: #000000; stroke-width: 0.507273; stroke-linejoin: miter"/>
   </g>
   <g id="patch_20">
    <path d="M 195.258976 579.834375 
L 202.380305 579.834375 
L 202.380305 568.65647 
L 195.258976 568.65647 
z
" clip-path="url(#p398b2bfc86)" style="fill: #1f77b4; fill-opacity: 0.75; stroke: #000000; stroke-width: 0.507273; stroke-linejoin: miter"/>
   </g>
   <g id="patch_21">
    <path d="M 202.380305 579.834375 
L 209.501634 579.834375 
L 209.501634 564.488437 
L 202.380305 564.488437 
z
" clip-path="url(#p398b2bfc86)" style="fill: #1f77b4; fill-opacity: 0.75; stroke: #000000; stroke-width: 0.507273; stroke-linejoin: miter"/>
   </g>
   <g id="patch_22">
    <path d="M 209.501634 579.834375 
L 216.622962 579.834375 
L 216.622962 560.225677 
L 209.501634 560.225677 
z
" clip-path="url(#p398b2bfc86)" style="fill: #1f77b4; fill-opacity: 0.75; stroke: #000000; stroke-width: 0.507273; stroke-linejoin: miter"/>
   </g>
   <g id="patch_23">
    <path d="M 216.622962 579.834375 
L 223.744291 579.834375 
L 223.744291 557.668021 
L 216.622962 557.668021 
z
" clip-path="url(#p398b2bfc86)" style="fill: #1f77b4; fill-opacity: 0.75; stroke: #000000; stroke-width: 0.507273; stroke-linejoin: miter"/>
   </g>
   <g id="patch_24">
    <path d="M 223.744291 579.834375 
L 230.86562 579.834375 
L 230.86562 552.93162 
L 223.744291 552.93162 
z
" clip-path="url(#p398b2bfc86)" style="fill: #1f77b4; fill-opacity: 0.75; stroke: #000000; stroke-width: 0.507273; stroke-linejoin: miter"/>
   </g>
   <g id="patch_25">
    <path d="M 230.86562 579.834375 
L 237.986949 579.834375 
L 237.986949 545.495472 
L 230.86562 545.495472 
z
" clip-path="url(#p398b2bfc86)" style="fill: #1f77b4; fill-opacity: 0.75; stroke: #000000; stroke-width: 0.507273; stroke-linejoin: miter"/>
   </g>
   <g id="patch_26">
    <path d="M 237.986949 579.834375 
L 245.108278 579.834375 
L 245.108278 540.616979 
L 237.986949 540.616979 
z
" clip-path="url(#p398b2bfc86)" style="fill: #1f77b4; fill-opacity: 0.75; stroke: #000000; stroke-width: 0.507273; stroke-linejoin: miter"/>
   </g>
   <g id="patch_27">
    <path d="M 245.108278 579.834375 
L 252.229606 579.834375 
L 252.229606 530.244262 
L 245.108278 530.244262 
z
" clip-path="url(#p398b2bfc86)" style="fill: #1f77b4; fill-opacity: 0.75; stroke: #000000; stroke-width: 0.507273; stroke-linejoin: miter"/>
   </g>
   <g id="patch_28">
    <path d="M 252.229606 579.834375 
L 259.350935 579.834375 
L 259.350935 523.187025 
L 252.229606 523.187025 
z
" clip-path="url(#p398b2bfc86)" style="fill: #1f77b4; fill-opacity: 0.75; stroke: #000000; stroke-width: 0.507273; stroke-linejoin: miter"/>
   </g>
   <g id="patch_29">
    <path d="M 259.350935 579.834375 
L 266.472264 579.834375 
L 266.472264 514.045772 
L 259.350935 514.045772 
z
" clip-path="url(#p398b2bfc86)" style="fill: #1f77b4; fill-opacity: 0.75; stroke: #000000; stroke-width: 0.507273; stroke-linejoin: miter"/>
   </g>
   <g id="patch_30">
    <path d="M 266.472264 579.834375 
L 273.593593 579.834375 
L 273.593593 505.899164 
L 266.472264 505.899164 
z
" clip-path="url(#p398b2bfc86)" style="fill: #1f77b4; fill-opacity: 0.75; stroke: #000000; stroke-width: 0.507273; stroke-linejoin: miter"/>
   </g>
   <g id="patch_31">
    <path d="M 273.593593 579.834375 
L 280.714922 579.834375 
L 280.714922 496.000087 
L 273.593593 496.000087 
z
" clip-path="url(#p398b2bfc86)" style="fill: #1f77b4; fill-opacity: 0.75; stroke: #000000; stroke-width: 0.507273; stroke-linejoin: miter"/>
   </g>
   <g id="patch_32">
    <path d="M 280.714922 579.834375 
L 287.836251 579.834375 
L 287.836251 484.348542 
L 280.714922 484.348542 
z
" clip-path="url(#p398b2bfc86)" style="fill: #1f77b4; fill-opacity: 0.75; stroke: #000000; stroke-width: 0.507273; stroke-linejoin: miter"/>
   </g>
   <g id="patch_33">
    <path d="M 287.836251 579.834375 
L 294.957579 579.834375 
L 294.957579 469.618336 
L 287.836251 469.618336 
z
" clip-path="url(#p398b2bfc86)" style="fill: #1f77b4; fill-opacity: 0.75; stroke: #000000; stroke-width: 0.507273; stroke-linejoin: miter"/>
   </g>
   <g id="patch_34">
    <path d="M 294.957579 579.834375 
L 302.078908 579.834375 
L 302.078908 460.287627 
L 294.957579 460.287627 
z
" clip-path="url(#p398b2bfc86)" style="fill: #1f77b4; fill-opacity: 0.75; stroke: #000000; stroke-width: 0.507273; stroke-linejoin: miter"/>
   </g>
   <g id="patch_35">
    <path d="M 302.078908 579.834375 
L 309.200237 579.834375 
L 309.200237 448.96763 
L 302.078908 448.96763 
z
" clip-path="url(#p398b2bfc86)" style="fill: #1f77b4; fill-opacity: 0.75; stroke: #000000; stroke-width: 0.507273; stroke-linejoin: miter"/>
   </g>
   <g id="patch_36">
    <path d="M 309.200237 579.834375 
L 316.321566 579.834375 
L 316.321566 438.594913 
L 309.200237 438.594913 
z
" clip-path="url(#p398b2bfc86)" style="fill: #1f77b4; fill-opacity: 0.75; stroke: #000000; stroke-width: 0.507273; stroke-linejoin: miter"/>
   </g>
   <g id="patch_37">
    <path d="M 316.321566 579.834375 
L 323.442895 579.834375 
L 323.442895 425.569812 
L 316.321566 425.569812 
z
" clip-path="url(#p398b2bfc86)" style="fill: #1f77b4; fill-opacity: 0.75; stroke: #000000; stroke-width: 0.507273; stroke-linejoin: miter"/>
   </g>
   <g id="patch_38">
    <path d="M 323.442895 579.834375 
L 330.564223 579.834375 
L 330.564223 413.539355 
L 323.442895 413.539355 
z
" clip-path="url(#p398b2bfc86)" style="fill: #1f77b4; fill-opacity: 0.75; stroke: #000000; stroke-width: 0.507273; stroke-linejoin: miter"/>
   </g>
   <g id="patch_39">
    <path d="M 330.564223 579.834375 
L 337.685552 579.834375 
L 337.685552 406.340026 
L 330.564223 406.340026 
z
" clip-path="url(#p398b2bfc86)" style="fill: #1f77b4; fill-opacity: 0.75; stroke: #000000; stroke-width: 0.507273; stroke-linejoin: miter"/>
   </g>
   <g id="patch_40">
    <path d="M 337.685552 579.834375 
L 344.806881 579.834375 
L 344.806881 395.067393 
L 337.685552 395.067393 
z
" clip-path="url(#p398b2bfc86)" style="fill: #1f77b4; fill-opacity: 0.75; stroke: #000000; stroke-width: 0.507273; stroke-linejoin: miter"/>
   </g>
   <g id="patch_41">
    <path d="M 344.806881 579.834375 
L 351.92821 579.834375 
L 351.92821 383.79476 
L 344.806881 383.79476 
z
" clip-path="url(#p398b2bfc86)" style="fill: #1f77b4; fill-opacity: 0.75; stroke: #000000; stroke-width: 0.507273; stroke-linejoin: miter"/>
   </g>
   <g id="patch_42">
    <path d="M 351.92821 579.834375 
L 359.049539 579.834375 
L 359.049539 376.263883 
L 351.92821 376.263883 
z
" clip-path="url(#p398b2bfc86)" style="fill: #1f77b4; fill-opacity: 0.75; stroke: #000000; stroke-width: 0.507273; stroke-linejoin: miter"/>
   </g>
   <g id="patch_43">
    <path d="M 359.049539 579.834375 
L 366.170867 579.834375 
L 366.170867 366.838446 
L 359.049539 366.838446 
z
" clip-path="url(#p398b2bfc86)" style="fill: #1f77b4; fill-opacity: 0.75; stroke: #000000; stroke-width: 0.507273; stroke-linejoin: miter"/>
   </g>
   <g id="patch_44">
    <path d="M 366.170867 579.834375 
L 373.292196 579.834375 
L 373.292196 372.190578 
L 366.170867 372.190578 
z
" clip-path="url(#p398b2bfc86)" style="fill: #1f77b4; fill-opacity: 0.75; stroke: #000000; stroke-width: 0.507273; stroke-linejoin: miter"/>
   </g>
   <g id="patch_45">
    <path d="M 373.292196 579.834375 
L 380.413525 579.834375 
L 380.413525 363.144054 
L 373.292196 363.144054 
z
" clip-path="url(#p398b2bfc86)" style="fill: #1f77b4; fill-opacity: 0.75; stroke: #000000; stroke-width: 0.507273; stroke-linejoin: miter"/>
   </g>
   <g id="patch_46">
    <path d="M 380.413525 579.834375 
L 387.534854 579.834375 
L 387.534854 363.665058 
L 380.413525 363.665058 
z
" clip-path="url(#p398b2bfc86)" style="fill: #1f77b4; fill-opacity: 0.75; stroke: #000000; stroke-width: 0.507273; stroke-linejoin: miter"/>
   </g>
   <g id="patch_47">
    <path d="M 387.534854 579.834375 
L 394.656183 579.834375 
L 394.656183 370.059198 
L 387.534854 370.059198 
z
" clip-path="url(#p398b2bfc86)" style="fill: #1f77b4; fill-opacity: 0.75; stroke: #000000; stroke-width: 0.507273; stroke-linejoin: miter"/>
   </g>
   <g id="patch_48">
    <path d="M 394.656183 579.834375 
L 401.777512 579.834375 
L 401.777512 363.522966 
L 394.656183 363.522966 
z
" clip-path="url(#p398b2bfc86)" style="fill: #1f77b4; fill-opacity: 0.75; stroke: #000000; stroke-width: 0.507273; stroke-linejoin: miter"/>
   </g>
   <g id="patch_49">
    <path d="M 401.777512 579.834375 
L 408.89884 579.834375 
L 408.89884 369.111918 
L 401.777512 369.111918 
z
" clip-path="url(#p398b2bfc86)" style="fill: #1f77b4; fill-opacity: 0.75; stroke: #000000; stroke-width: 0.507273; stroke-linejoin: miter"/>
   </g>
   <g id="patch_50">
    <path d="M 408.89884 579.834375 
L 416.020169 579.834375 
L 416.020169 376.027063 
L 408.89884 376.027063 
z
" clip-path="url(#p398b2bfc86)" style="fill: #1f77b4; fill-opacity: 0.75; stroke: #000000; stroke-width: 0.507273; stroke-linejoin: miter"/>
   </g>
   <g id="patch_51">
    <path d="M 416.020169 579.834375 
L 423.141498 579.834375 
L 423.141498 384.599948 
L 416.020169 384.599948 
z
" clip-path="url(#p398b2bfc86)" style="fill: #1f77b4; fill-opacity: 0.75; stroke: #000000; stroke-width: 0.507273; stroke-linejoin: miter"/>
   </g>
   <g id="patch_52">
    <path d="M 423.141498 579.834375 
L 430.262827 579.834375 
L 430.262827 389.809988 
L 423.141498 389.809988 
z
" clip-path="url(#p398b2bfc86)" style="fill: #1f77b4; fill-opacity: 0.75; stroke: #000000; stroke-width: 0.507273; stroke-linejoin: miter"/>
   </g>
   <g id="patch_53">
    <path d="M 430.262827 579.834375 
L 437.384156 579.834375 
L 437.384156 398.288145 
L 430.262827 398.288145 
z
" clip-path="url(#p398b2bfc86)" style="fill: #1f77b4; fill-opacity: 0.75; stroke: #000000; stroke-width: 0.507273; stroke-linejoin: miter"/>
   </g>
   <g id="patch_54">
    <path d="M 437.384156 579.834375 
L 444.505484 579.834375 
L 444.505484 408.660862 
L 437.384156 408.660862 
z
" clip-path="url(#p398b2bfc86)" style="fill: #1f77b4; fill-opacity: 0.75; stroke: #000000; stroke-width: 0.507273; stroke-linejoin: miter"/>
   </g>
   <g id="patch_55">
    <path d="M 444.505484 579.834375 
L 451.626813 579.834375 
L 451.626813 415.055003 
L 444.505484 415.055003 
z
" clip-path="url(#p398b2bfc86)" style="fill: #1f77b4; fill-opacity: 0.75; stroke: #000000; stroke-width: 0.507273; stroke-linejoin: miter"/>
   </g>
   <g id="patch_56">
    <path d="M 451.626813 579.834375 
L 458.748142 579.834375 
L 458.748142 426.943368 
L 451.626813 426.943368 
z
" clip-path="url(#p398b2bfc86)" style="fill: #1f77b4; fill-opacity: 0.75; stroke: #000000; stroke-width: 0.507273; stroke-linejoin: miter"/>
   </g>
   <g id="patch_57">
    <path d="M 458.748142 579.834375 
L 465.869471 579.834375 
L 465.869471 441.815665 
L 458.748142 441.815665 
z
" clip-path="url(#p398b2bfc86)" style="fill: #1f77b4; fill-opacity: 0.75; stroke: #000000; stroke-width: 0.507273; stroke-linejoin: miter"/>
   </g>
   <g id="patch_58">
    <path d="M 465.869471 579.834375 
L 472.9908 579.834375 
L 472.9908 453.940851 
L 465.869471 453.940851 
z
" clip-path="url(#p398b2bfc86)" style="fill: #1f77b4; fill-opacity: 0.75; stroke: #000000; stroke-width: 0.507273; stroke-linejoin: miter"/>
   </g>
   <g id="patch_59">
    <path d="M 472.9908 579.834375 
L 480.112129 579.834375 
L 480.112129 466.208128 
L 472.9908 466.208128 
z
" clip-path="url(#p398b2bfc86)" style="fill: #1f77b4; fill-opacity: 0.75; stroke: #000000; stroke-width: 0.507273; stroke-linejoin: miter"/>
   </g>
   <g id="patch_60">
    <path d="M 480.112129 579.834375 
L 487.233457 579.834375 
L 487.233457 476.344025 
L 480.112129 476.344025 
z
" clip-path="url(#p398b2bfc86)" style="fill: #1f77b4; fill-opacity: 0.75; stroke: #000000; stroke-width: 0.507273; stroke-linejoin: miter"/>
   </g>
   <g id="patch_61">
    <path d="M 487.233457 579.834375 
L 494.354786 579.834375 
L 494.354786 484.632726 
L 487.233457 484.632726 
z
" clip-path="url(#p398b2bfc86)" style="fill: #1f77b4; fill-opacity: 0.75; stroke: #000000; stroke-width: 0.507273; stroke-linejoin: miter"/>
   </g>
   <g id="patch_62">
    <path d="M 494.354786 579.834375 
L 501.476115 579.834375 
L 501.476115 492.49515 
L 494.354786 492.49515 
z
" clip-path="url(#p398b2bfc86)" style="fill: #1f77b4; fill-opacity: 0.75; stroke: #000000; stroke-width: 0.507273; stroke-linejoin: miter"/>
   </g>
   <g id="patch_63">
    <path d="M 501.476115 579.834375 
L 508.597444 579.834375 
L 508.597444 503.388871 
L 501.476115 503.388871 
z
" clip-path="url(#p398b2bfc86)" style="fill: #1f77b4; fill-opacity: 0.75; stroke: #000000; stroke-width: 0.507273; stroke-linejoin: miter"/>
   </g>
   <g id="patch_64">
    <path d="M 508.597444 579.834375 
L 515.718773 579.834375 
L 515.718773 514.424685 
L 508.597444 514.424685 
z
" clip-path="url(#p398b2bfc86)" style="fill: #1f77b4; fill-opacity: 0.75; stroke: #000000; stroke-width: 0.507273; stroke-linejoin: miter"/>
   </g>
   <g id="patch_65">
    <path d="M 515.718773 579.834375 
L 522.840101 579.834375 
L 522.840101 520.960917 
L 515.718773 520.960917 
z
" clip-path="url(#p398b2bfc86)" style="fill: #1f77b4; fill-opacity: 0.75; stroke: #000000; stroke-width: 0.507273; stroke-linejoin: miter"/>
   </g>
   <g id="patch_66">
    <path d="M 522.840101 579.834375 
L 529.96143 579.834375 
L 529.96143 530.717902 
L 522.840101 530.717902 
z
" clip-path="url(#p398b2bfc86)" style="fill: #1f77b4; fill-opacity: 0.75; stroke: #000000; stroke-width: 0.507273; stroke-linejoin: miter"/>
   </g>
   <g id="patch_67">
    <path d="M 529.96143 579.834375 
L 537.082759 579.834375 
L 537.082759 536.212127 
L 529.96143 536.212127 
z
" clip-path="url(#p398b2bfc86)" style="fill: #1f77b4; fill-opacity: 0.75; stroke: #000000; stroke-width: 0.507273; stroke-linejoin: miter"/>
   </g>
   <g id="patch_68">
    <path d="M 537.082759 579.834375 
L 544.204088 579.834375 
L 544.204088 540.569615 
L 537.082759 540.569615 
z
" clip-path="url(#p398b2bfc86)" style="fill: #1f77b4; fill-opacity: 0.75; stroke: #000000; stroke-width: 0.507273; stroke-linejoin: miter"/>
   </g>
   <g id="patch_69">
    <path d="M 544.204088 579.834375 
L 551.325417 579.834375 
L 551.325417 546.30066 
L 544.204088 546.30066 
z
" clip-path="url(#p398b2bfc86)" style="fill: #1f77b4; fill-opacity: 0.75; stroke: #000000; stroke-width: 0.507273; stroke-linejoin: miter"/>
   </g>
   <g id="patch_70">
    <path d="M 551.325417 579.834375 
L 558.446745 579.834375 
L 558.446745 553.026348 
L 551.325417 553.026348 
z
" clip-path="url(#p398b2bfc86)" style="fill: #1f77b4; fill-opacity: 0.75; stroke: #000000; stroke-width: 0.507273; stroke-linejoin: miter"/>
   </g>
   <g id="patch_71">
    <path d="M 558.446745 579.834375 
L 565.568074 579.834375 
L 565.568074 558.378481 
L 558.446745 558.378481 
z
" clip-path="url(#p398b2bfc86)" style="fill: #1f77b4; fill-opacity: 0.75; stroke: #000000; stroke-width: 0.507273; stroke-linejoin: miter"/>
   </g>
   <g id="patch_72">
    <path d="M 565.568074 579.834375 
L 572.689403 579.834375 
L 572.689403 560.841409 
L 565.568074 560.841409 
z
" clip-path="url(#p398b2bfc86)" style="fill: #1f77b4; fill-opacity: 0.75; stroke: #000000; stroke-width: 0.507273; stroke-linejoin: miter"/>
   </g>
   <g id="patch_73">
    <path d="M 572.689403 579.834375 
L 579.810732 579.834375 
L 579.810732 562.262329 
L 572.689403 562.262329 
z
" clip-path="url(#p398b2bfc86)" style="fill: #1f77b4; fill-opacity: 0.75; stroke: #000000; stroke-width: 0.507273; stroke-linejoin: miter"/>
   </g>
   <g id="patch_74">
    <path d="M 579.810732 579.834375 
L 586.932061 579.834375 
L 586.932061 566.856638 
L 579.810732 566.856638 
z
" clip-path="url(#p398b2bfc86)" style="fill: #1f77b4; fill-opacity: 0.75; stroke: #000000; stroke-width: 0.507273; stroke-linejoin: miter"/>
   </g>
   <g id="patch_75">
    <path d="M 586.932061 579.834375 
L 594.05339 579.834375 
L 594.05339 568.41965 
L 586.932061 568.41965 
z
" clip-path="url(#p398b2bfc86)" style="fill: #1f77b4; fill-opacity: 0.75; stroke: #000000; stroke-width: 0.507273; stroke-linejoin: miter"/>
   </g>
   <g id="patch_76">
    <path d="M 594.05339 579.834375 
L 601.174718 579.834375 
L 601.174718 569.177474 
L 594.05339 569.177474 
z
" clip-path="url(#p398b2bfc86)" style="fill: #1f77b4; fill-opacity: 0.75; stroke: #000000; stroke-width: 0.507273; stroke-linejoin: miter"/>
   </g>
   <g id="patch_77">
    <path d="M 601.174718 579.834375 
L 608.296047 579.834375 
L 608.296047 572.966594 
L 601.174718 572.966594 
z
" clip-path="url(#p398b2bfc86)" style="fill: #1f77b4; fill-opacity: 0.75; stroke: #000000; stroke-width: 0.507273; stroke-linejoin: miter"/>
   </g>
   <g id="patch_78">
    <path d="M 608.296047 579.834375 
L 615.417376 579.834375 
L 615.417376 574.10333 
L 608.296047 574.10333 
z
" clip-path="url(#p398b2bfc86)" style="fill: #1f77b4; fill-opacity: 0.75; stroke: #000000; stroke-width: 0.507273; stroke-linejoin: miter"/>
   </g>
   <g id="patch_79">
    <path d="M 615.417376 579.834375 
L 622.538705 579.834375 
L 622.538705 574.908519 
L 615.417376 574.908519 
z
" clip-path="url(#p398b2bfc86)" style="fill: #1f77b4; fill-opacity: 0.75; stroke: #000000; stroke-width: 0.507273; stroke-linejoin: miter"/>
   </g>
   <g id="patch_80">
    <path d="M 622.538705 579.834375 
L 629.660034 579.834375 
L 629.660034 575.240067 
L 622.538705 575.240067 
z
" clip-path="url(#p398b2bfc86)" style="fill: #1f77b4; fill-opacity: 0.75; stroke: #000000; stroke-width: 0.507273; stroke-linejoin: miter"/>
   </g>
   <g id="patch_81">
    <path d="M 629.660034 579.834375 
L 636.781362 579.834375 
L 636.781362 577.087263 
L 629.660034 577.087263 
z
" clip-path="url(#p398b2bfc86)" style="fill: #1f77b4; fill-opacity: 0.75; stroke: #000000; stroke-width: 0.507273; stroke-linejoin: miter"/>
   </g>
   <g id="patch_82">
    <path d="M 636.781362 579.834375 
L 643.902691 579.834375 
L 643.902691 577.371447 
L 636.781362 577.371447 
z
" clip-path="url(#p398b2bfc86)" style="fill: #1f77b4; fill-opacity: 0.75; stroke: #000000; stroke-width: 0.507273; stroke-linejoin: miter"/>
   </g>
   <g id="patch_83">
    <path d="M 643.902691 579.834375 
L 651.02402 579.834375 
L 651.02402 578.271363 
L 643.902691 578.271363 
z
" clip-path="url(#p398b2bfc86)" style="fill: #1f77b4; fill-opacity: 0.75; stroke: #000000; stroke-width: 0.507273; stroke-linejoin: miter"/>
   </g>
   <g id="patch_84">
    <path d="M 651.02402 579.834375 
L 658.145349 579.834375 
L 658.145349 578.555547 
L 651.02402 578.555547 
z
" clip-path="url(#p398b2bfc86)" style="fill: #1f77b4; fill-opacity: 0.75; stroke: #000000; stroke-width: 0.507273; stroke-linejoin: miter"/>
   </g>
   <g id="patch_85">
    <path d="M 658.145349 579.834375 
L 665.266678 579.834375 
L 665.266678 578.650275 
L 658.145349 578.650275 
z
" clip-path="url(#p398b2bfc86)" style="fill: #1f77b4; fill-opacity: 0.75; stroke: #000000; stroke-width: 0.507273; stroke-linejoin: miter"/>
   </g>
   <g id="patch_86">
    <path d="M 665.266678 579.834375 
L 672.388006 579.834375 
L 672.388006 578.792367 
L 665.266678 578.792367 
z
" clip-path="url(#p398b2bfc86)" style="fill: #1f77b4; fill-opacity: 0.75; stroke: #000000; stroke-width: 0.507273; stroke-linejoin: miter"/>
   </g>
   <g id="patch_87">
    <path d="M 672.388006 579.834375 
L 679.509335 579.834375 
L 679.509335 579.266007 
L 672.388006 579.266007 
z
" clip-path="url(#p398b2bfc86)" style="fill: #1f77b4; fill-opacity: 0.75; stroke: #000000; stroke-width: 0.507273; stroke-linejoin: miter"/>
   </g>
   <g id="patch_88">
    <path d="M 679.509335 579.834375 
L 686.630664 579.834375 
L 686.630664 579.408099 
L 679.509335 579.408099 
z
" clip-path="url(#p398b2bfc86)" style="fill: #1f77b4; fill-opacity: 0.75; stroke: #000000; stroke-width: 0.507273; stroke-linejoin: miter"/>
   </g>
   <g id="patch_89">
    <path d="M 686.630664 579.834375 
L 693.751993 579.834375 
L 693.751993 579.597555 
L 686.630664 579.597555 
z
" clip-path="url(#p398b2bfc86)" style="fill: #1f77b4; fill-opacity: 0.75; stroke: #000000; stroke-width: 0.507273; stroke-linejoin: miter"/>
   </g>
   <g id="patch_90">
    <path d="M 693.751993 579.834375 
L 700.873322 579.834375 
L 700.873322 579.739647 
L 693.751993 579.739647 
z
" clip-path="url(#p398b2bfc86)" style="fill: #1f77b4; fill-opacity: 0.75; stroke: #000000; stroke-width: 0.507273; stroke-linejoin: miter"/>
   </g>
   <g id="patch_91">
    <path d="M 700.873322 579.834375 
L 707.994651 579.834375 
L 707.994651 579.692283 
L 700.873322 579.692283 
z
" clip-path="url(#p398b2bfc86)" style="fill: #1f77b4; fill-opacity: 0.75; stroke: #000000; stroke-width: 0.507273; stroke-linejoin: miter"/>
   </g>
   <g id="patch_92">
    <path d="M 707.994651 579.834375 
L 715.115979 579.834375 
L 715.115979 579.692283 
L 707.994651 579.692283 
z
" clip-path="url(#p398b2bfc86)" style="fill: #1f77b4; fill-opacity: 0.75; stroke: #000000; stroke-width: 0.507273; stroke-linejoin: miter"/>
   </g>
   <g id="patch_93">
    <path d="M 715.115979 579.834375 
L 722.237308 579.834375 
L 722.237308 579.692283 
L 715.115979 579.692283 
z
" clip-path="url(#p398b2bfc86)" style="fill: #1f77b4; fill-opacity: 0.75; stroke: #000000; stroke-width: 0.507273; stroke-linejoin: miter"/>
   </g>
   <g id="patch_94">
    <path d="M 722.237308 579.834375 
L 729.358637 579.834375 
L 729.358637 579.787011 
L 722.237308 579.787011 
z
" clip-path="url(#p398b2bfc86)" style="fill: #1f77b4; fill-opacity: 0.75; stroke: #000000; stroke-width: 0.507273; stroke-linejoin: miter"/>
   </g>
   <g id="patch_95">
    <path d="M 729.358637 579.834375 
L 736.479966 579.834375 
L 736.479966 579.834375 
L 729.358637 579.834375 
z
" clip-path="url(#p398b2bfc86)" style="fill: #1f77b4; fill-opacity: 0.75; stroke: #000000; stroke-width: 0.507273; stroke-linejoin: miter"/>
   </g>
   <g id="patch_96">
    <path d="M 736.479966 579.834375 
L 743.601295 579.834375 
L 743.601295 579.787011 
L 736.479966 579.787011 
z
" clip-path="url(#p398b2bfc86)" style="fill: #1f77b4; fill-opacity: 0.75; stroke: #000000; stroke-width: 0.507273; stroke-linejoin: miter"/>
   </g>
   <g id="patch_97">
    <path d="M 743.601295 579.834375 
L 750.722623 579.834375 
L 750.722623 579.834375 
L 743.601295 579.834375 
z
" clip-path="url(#p398b2bfc86)" style="fill: #1f77b4; fill-opacity: 0.75; stroke: #000000; stroke-width: 0.507273; stroke-linejoin: miter"/>
   </g>
   <g id="patch_98">
    <path d="M 750.722623 579.834375 
L 757.843952 579.834375 
L 757.843952 579.787011 
L 750.722623 579.787011 
z
" clip-path="url(#p398b2bfc86)" style="fill: #1f77b4; fill-opacity: 0.75; stroke: #000000; stroke-width: 0.507273; stroke-linejoin: miter"/>
   </g>
   <g id="patch_99">
    <path d="M 757.843952 579.834375 
L 764.965281 579.834375 
L 764.965281 579.739647 
L 757.843952 579.739647 
z
" clip-path="url(#p398b2bfc86)" style="fill: #1f77b4; fill-opacity: 0.75; stroke: #000000; stroke-width: 0.507273; stroke-linejoin: miter"/>
   </g>
   <g id="patch_100">
    <path d="M 764.965281 579.834375 
L 772.08661 579.834375 
L 772.08661 579.787011 
L 764.965281 579.787011 
z
" clip-path="url(#p398b2bfc86)" style="fill: #1f77b4; fill-opacity: 0.75; stroke: #000000; stroke-width: 0.507273; stroke-linejoin: miter"/>
   </g>
   <g id="patch_101">
    <path d="M 772.08661 579.834375 
L 779.207939 579.834375 
L 779.207939 579.834375 
L 772.08661 579.834375 
z
" clip-path="url(#p398b2bfc86)" style="fill: #1f77b4; fill-opacity: 0.75; stroke: #000000; stroke-width: 0.507273; stroke-linejoin: miter"/>
   </g>
   <g id="patch_102">
    <path d="M 779.207939 579.834375 
L 786.329267 579.834375 
L 786.329267 579.787011 
L 779.207939 579.787011 
z
" clip-path="url(#p398b2bfc86)" style="fill: #1f77b4; fill-opacity: 0.75; stroke: #000000; stroke-width: 0.507273; stroke-linejoin: miter"/>
   </g>
   <g id="patch_103">
    <path d="M 24.721548 579.834375 
L 31.098404 579.834375 
L 31.098404 579.075341 
L 24.721548 579.075341 
z
" clip-path="url(#p398b2bfc86)" style="fill: #ff7f0e; fill-opacity: 0.75; stroke: #000000; stroke-width: 0.424734; stroke-linejoin: miter"/>
   </g>
   <g id="patch_104">
    <path d="M 31.098404 579.834375 
L 37.475261 579.834375 
L 37.475261 577.557273 
L 31.098404 577.557273 
z
" clip-path="url(#p398b2bfc86)" style="fill: #ff7f0e; fill-opacity: 0.75; stroke: #000000; stroke-width: 0.424734; stroke-linejoin: miter"/>
   </g>
   <g id="patch_105">
    <path d="M 37.475261 579.834375 
L 43.852117 579.834375 
L 43.852117 579.834375 
L 37.475261 579.834375 
z
" clip-path="url(#p398b2bfc86)" style="fill: #ff7f0e; fill-opacity: 0.75; stroke: #000000; stroke-width: 0.424734; stroke-linejoin: miter"/>
   </g>
   <g id="patch_106">
    <path d="M 43.852117 579.834375 
L 50.228974 579.834375 
L 50.228974 577.557273 
L 43.852117 577.557273 
z
" clip-path="url(#p398b2bfc86)" style="fill: #ff7f0e; fill-opacity: 0.75; stroke: #000000; stroke-width: 0.424734; stroke-linejoin: miter"/>
   </g>
   <g id="patch_107">
    <path d="M 50.228974 579.834375 
L 56.60583 579.834375 
L 56.60583 575.280171 
L 50.228974 575.280171 
z
" clip-path="url(#p398b2bfc86)" style="fill: #ff7f0e; fill-opacity: 0.75; stroke: #000000; stroke-width: 0.424734; stroke-linejoin: miter"/>
   </g>
   <g id="patch_108">
    <path d="M 56.60583 579.834375 
L 62.982687 579.834375 
L 62.982687 578.316307 
L 56.60583 578.316307 
z
" clip-path="url(#p398b2bfc86)" style="fill: #ff7f0e; fill-opacity: 0.75; stroke: #000000; stroke-width: 0.424734; stroke-linejoin: miter"/>
   </g>
   <g id="patch_109">
    <path d="M 62.982687 579.834375 
L 69.359543 579.834375 
L 69.359543 576.798239 
L 62.982687 576.798239 
z
" clip-path="url(#p398b2bfc86)" style="fill: #ff7f0e; fill-opacity: 0.75; stroke: #000000; stroke-width: 0.424734; stroke-linejoin: miter"/>
   </g>
   <g id="patch_110">
    <path d="M 69.359543 579.834375 
L 75.7364 579.834375 
L 75.7364 574.521137 
L 69.359543 574.521137 
z
" clip-path="url(#p398b2bfc86)" style="fill: #ff7f0e; fill-opacity: 0.75; stroke: #000000; stroke-width: 0.424734; stroke-linejoin: miter"/>
   </g>
   <g id="patch_111">
    <path d="M 75.7364 579.834375 
L 82.113256 579.834375 
L 82.113256 571.485001 
L 75.7364 571.485001 
z
" clip-path="url(#p398b2bfc86)" style="fill: #ff7f0e; fill-opacity: 0.75; stroke: #000000; stroke-width: 0.424734; stroke-linejoin: miter"/>
   </g>
   <g id="patch_112">
    <path d="M 82.113256 579.834375 
L 88.490112 579.834375 
L 88.490112 572.244035 
L 82.113256 572.244035 
z
" clip-path="url(#p398b2bfc86)" style="fill: #ff7f0e; fill-opacity: 0.75; stroke: #000000; stroke-width: 0.424734; stroke-linejoin: miter"/>
   </g>
   <g id="patch_113">
    <path d="M 88.490112 579.834375 
L 94.866969 579.834375 
L 94.866969 564.653695 
L 88.490112 564.653695 
z
" clip-path="url(#p398b2bfc86)" style="fill: #ff7f0e; fill-opacity: 0.75; stroke: #000000; stroke-width: 0.424734; stroke-linejoin: miter"/>
   </g>
   <g id="patch_114">
    <path d="M 94.866969 579.834375 
L 101.243825 579.834375 
L 101.243825 561.617559 
L 94.866969 561.617559 
z
" clip-path="url(#p398b2bfc86)" style="fill: #ff7f0e; fill-opacity: 0.75; stroke: #000000; stroke-width: 0.424734; stroke-linejoin: miter"/>
   </g>
   <g id="patch_115">
    <path d="M 101.243825 579.834375 
L 107.620682 579.834375 
L 107.620682 563.894661 
L 101.243825 563.894661 
z
" clip-path="url(#p398b2bfc86)" style="fill: #ff7f0e; fill-opacity: 0.75; stroke: #000000; stroke-width: 0.424734; stroke-linejoin: miter"/>
   </g>
   <g id="patch_116">
    <path d="M 107.620682 579.834375 
L 113.997538 579.834375 
L 113.997538 562.376593 
L 107.620682 562.376593 
z
" clip-path="url(#p398b2bfc86)" style="fill: #ff7f0e; fill-opacity: 0.75; stroke: #000000; stroke-width: 0.424734; stroke-linejoin: miter"/>
   </g>
   <g id="patch_117">
    <path d="M 113.997538 579.834375 
L 120.374395 579.834375 
L 120.374395 553.268184 
L 113.997538 553.268184 
z
" clip-path="url(#p398b2bfc86)" style="fill: #ff7f0e; fill-opacity: 0.75; stroke: #000000; stroke-width: 0.424734; stroke-linejoin: miter"/>
   </g>
   <g id="patch_118">
    <path d="M 120.374395 579.834375 
L 126.751251 579.834375 
L 126.751251 547.195912 
L 120.374395 547.195912 
z
" clip-path="url(#p398b2bfc86)" style="fill: #ff7f0e; fill-opacity: 0.75; stroke: #000000; stroke-width: 0.424734; stroke-linejoin: miter"/>
   </g>
   <g id="patch_119">
    <path d="M 126.751251 579.834375 
L 133.128108 579.834375 
L 133.128108 541.12364 
L 126.751251 541.12364 
z
" clip-path="url(#p398b2bfc86)" style="fill: #ff7f0e; fill-opacity: 0.75; stroke: #000000; stroke-width: 0.424734; stroke-linejoin: miter"/>
   </g>
   <g id="patch_120">
    <path d="M 133.128108 579.834375 
L 139.504964 579.834375 
L 139.504964 531.256198 
L 133.128108 531.256198 
z
" clip-path="url(#p398b2bfc86)" style="fill: #ff7f0e; fill-opacity: 0.75; stroke: #000000; stroke-width: 0.424734; stroke-linejoin: miter"/>
   </g>
   <g id="patch_121">
    <path d="M 139.504964 579.834375 
L 145.88182 579.834375 
L 145.88182 528.979096 
L 139.504964 528.979096 
z
" clip-path="url(#p398b2bfc86)" style="fill: #ff7f0e; fill-opacity: 0.75; stroke: #000000; stroke-width: 0.424734; stroke-linejoin: miter"/>
   </g>
   <g id="patch_122">
    <path d="M 145.88182 579.834375 
L 152.258677 579.834375 
L 152.258677 504.690007 
L 145.88182 504.690007 
z
" clip-path="url(#p398b2bfc86)" style="fill: #ff7f0e; fill-opacity: 0.75; stroke: #000000; stroke-width: 0.424734; stroke-linejoin: miter"/>
   </g>
   <g id="patch_123">
    <path d="M 152.258677 579.834375 
L 158.635533 579.834375 
L 158.635533 510.003245 
L 152.258677 510.003245 
z
" clip-path="url(#p398b2bfc86)" style="fill: #ff7f0e; fill-opacity: 0.75; stroke: #000000; stroke-width: 0.424734; stroke-linejoin: miter"/>
   </g>
   <g id="patch_124">
    <path d="M 158.635533 579.834375 
L 165.01239 579.834375 
L 165.01239 490.268361 
L 158.635533 490.268361 
z
" clip-path="url(#p398b2bfc86)" style="fill: #ff7f0e; fill-opacity: 0.75; stroke: #000000; stroke-width: 0.424734; stroke-linejoin: miter"/>
   </g>
   <g id="patch_125">
    <path d="M 165.01239 579.834375 
L 171.389246 579.834375 
L 171.389246 472.051544 
L 165.01239 472.051544 
z
" clip-path="url(#p398b2bfc86)" style="fill: #ff7f0e; fill-opacity: 0.75; stroke: #000000; stroke-width: 0.424734; stroke-linejoin: miter"/>
   </g>
   <g id="patch_126">
    <path d="M 171.389246 579.834375 
L 177.766103 579.834375 
L 177.766103 462.943136 
L 171.389246 462.943136 
z
" clip-path="url(#p398b2bfc86)" style="fill: #ff7f0e; fill-opacity: 0.75; stroke: #000000; stroke-width: 0.424734; stroke-linejoin: miter"/>
   </g>
   <g id="patch_127">
    <path d="M 177.766103 579.834375 
L 184.142959 579.834375 
L 184.142959 466.738306 
L 177.766103 466.738306 
z
" clip-path="url(#p398b2bfc86)" style="fill: #ff7f0e; fill-opacity: 0.75; stroke: #000000; stroke-width: 0.424734; stroke-linejoin: miter"/>
   </g>
   <g id="patch_128">
    <path d="M 184.142959 579.834375 
L 190.519816 579.834375 
L 190.519816 459.907 
L 184.142959 459.907 
z
" clip-path="url(#p398b2bfc86)" style="fill: #ff7f0e; fill-opacity: 0.75; stroke: #000000; stroke-width: 0.424734; stroke-linejoin: miter"/>
   </g>
   <g id="patch_129">
    <path d="M 190.519816 579.834375 
L 196.896672 579.834375 
L 196.896672 437.135979 
L 190.519816 437.135979 
z
" clip-path="url(#p398b2bfc86)" style="fill: #ff7f0e; fill-opacity: 0.75; stroke: #000000; stroke-width: 0.424734; stroke-linejoin: miter"/>
   </g>
   <g id="patch_130">
    <path d="M 196.896672 579.834375 
L 203.273528 579.834375 
L 203.273528 431.822741 
L 196.896672 431.822741 
z
" clip-path="url(#p398b2bfc86)" style="fill: #ff7f0e; fill-opacity: 0.75; stroke: #000000; stroke-width: 0.424734; stroke-linejoin: miter"/>
   </g>
   <g id="patch_131">
    <path d="M 203.273528 579.834375 
L 209.650385 579.834375 
L 209.650385 415.883027 
L 203.273528 415.883027 
z
" clip-path="url(#p398b2bfc86)" style="fill: #ff7f0e; fill-opacity: 0.75; stroke: #000000; stroke-width: 0.424734; stroke-linejoin: miter"/>
   </g>
   <g id="patch_132">
    <path d="M 209.650385 579.834375 
L 216.027241 579.834375 
L 216.027241 403.738482 
L 209.650385 403.738482 
z
" clip-path="url(#p398b2bfc86)" style="fill: #ff7f0e; fill-opacity: 0.75; stroke: #000000; stroke-width: 0.424734; stroke-linejoin: miter"/>
   </g>
   <g id="patch_133">
    <path d="M 216.027241 579.834375 
L 222.404098 579.834375 
L 222.404098 380.967462 
L 216.027241 380.967462 
z
" clip-path="url(#p398b2bfc86)" style="fill: #ff7f0e; fill-opacity: 0.75; stroke: #000000; stroke-width: 0.424734; stroke-linejoin: miter"/>
   </g>
   <g id="patch_134">
    <path d="M 222.404098 579.834375 
L 228.780954 579.834375 
L 228.780954 371.859054 
L 222.404098 371.859054 
z
" clip-path="url(#p398b2bfc86)" style="fill: #ff7f0e; fill-opacity: 0.75; stroke: #000000; stroke-width: 0.424734; stroke-linejoin: miter"/>
   </g>
   <g id="patch_135">
    <path d="M 228.780954 579.834375 
L 235.157811 579.834375 
L 235.157811 386.2807 
L 228.780954 386.2807 
z
" clip-path="url(#p398b2bfc86)" style="fill: #ff7f0e; fill-opacity: 0.75; stroke: #000000; stroke-width: 0.424734; stroke-linejoin: miter"/>
   </g>
   <g id="patch_136">
    <path d="M 235.157811 579.834375 
L 241.534667 579.834375 
L 241.534667 388.557802 
L 235.157811 388.557802 
z
" clip-path="url(#p398b2bfc86)" style="fill: #ff7f0e; fill-opacity: 0.75; stroke: #000000; stroke-width: 0.424734; stroke-linejoin: miter"/>
   </g>
   <g id="patch_137">
    <path d="M 241.534667 579.834375 
L 247.911524 579.834375 
L 247.911524 368.822918 
L 241.534667 368.822918 
z
" clip-path="url(#p398b2bfc86)" style="fill: #ff7f0e; fill-opacity: 0.75; stroke: #000000; stroke-width: 0.424734; stroke-linejoin: miter"/>
   </g>
   <g id="patch_138">
    <path d="M 247.911524 579.834375 
L 254.28838 579.834375 
L 254.28838 371.10002 
L 247.911524 371.10002 
z
" clip-path="url(#p398b2bfc86)" style="fill: #ff7f0e; fill-opacity: 0.75; stroke: #000000; stroke-width: 0.424734; stroke-linejoin: miter"/>
   </g>
   <g id="patch_139">
    <path d="M 254.28838 579.834375 
L 260.665236 579.834375 
L 260.665236 337.702523 
L 254.28838 337.702523 
z
" clip-path="url(#p398b2bfc86)" style="fill: #ff7f0e; fill-opacity: 0.75; stroke: #000000; stroke-width: 0.424734; stroke-linejoin: miter"/>
   </g>
   <g id="patch_140">
    <path d="M 260.665236 579.834375 
L 267.042093 579.834375 
L 267.042093 339.979625 
L 260.665236 339.979625 
z
" clip-path="url(#p398b2bfc86)" style="fill: #ff7f0e; fill-opacity: 0.75; stroke: #000000; stroke-width: 0.424734; stroke-linejoin: miter"/>
   </g>
   <g id="patch_141">
    <path d="M 267.042093 579.834375 
L 273.418949 579.834375 
L 273.418949 345.292863 
L 267.042093 345.292863 
z
" clip-path="url(#p398b2bfc86)" style="fill: #ff7f0e; fill-opacity: 0.75; stroke: #000000; stroke-width: 0.424734; stroke-linejoin: miter"/>
   </g>
   <g id="patch_142">
    <path d="M 273.418949 579.834375 
L 279.795806 579.834375 
L 279.795806 352.124169 
L 273.418949 352.124169 
z
" clip-path="url(#p398b2bfc86)" style="fill: #ff7f0e; fill-opacity: 0.75; stroke: #000000; stroke-width: 0.424734; stroke-linejoin: miter"/>
   </g>
   <g id="patch_143">
    <path d="M 279.795806 579.834375 
L 286.172662 579.834375 
L 286.172662 375.654224 
L 279.795806 375.654224 
z
" clip-path="url(#p398b2bfc86)" style="fill: #ff7f0e; fill-opacity: 0.75; stroke: #000000; stroke-width: 0.424734; stroke-linejoin: miter"/>
   </g>
   <g id="patch_144">
    <path d="M 286.172662 579.834375 
L 292.549519 579.834375 
L 292.549519 350.606101 
L 286.172662 350.606101 
z
" clip-path="url(#p398b2bfc86)" style="fill: #ff7f0e; fill-opacity: 0.75; stroke: #000000; stroke-width: 0.424734; stroke-linejoin: miter"/>
   </g>
   <g id="patch_145">
    <path d="M 292.549519 579.834375 
L 298.926375 579.834375 
L 298.926375 365.027747 
L 292.549519 365.027747 
z
" clip-path="url(#p398b2bfc86)" style="fill: #ff7f0e; fill-opacity: 0.75; stroke: #000000; stroke-width: 0.424734; stroke-linejoin: miter"/>
   </g>
   <g id="patch_146">
    <path d="M 298.926375 579.834375 
L 305.303232 579.834375 
L 305.303232 390.07587 
L 298.926375 390.07587 
z
" clip-path="url(#p398b2bfc86)" style="fill: #ff7f0e; fill-opacity: 0.75; stroke: #000000; stroke-width: 0.424734; stroke-linejoin: miter"/>
   </g>
   <g id="patch_147">
    <path d="M 305.303232 579.834375 
L 311.680088 579.834375 
L 311.680088 413.605925 
L 305.303232 413.605925 
z
" clip-path="url(#p398b2bfc86)" style="fill: #ff7f0e; fill-opacity: 0.75; stroke: #000000; stroke-width: 0.424734; stroke-linejoin: miter"/>
   </g>
   <g id="patch_148">
    <path d="M 311.680088 579.834375 
L 318.056944 579.834375 
L 318.056944 393.112006 
L 311.680088 393.112006 
z
" clip-path="url(#p398b2bfc86)" style="fill: #ff7f0e; fill-opacity: 0.75; stroke: #000000; stroke-width: 0.424734; stroke-linejoin: miter"/>
   </g>
   <g id="patch_149">
    <path d="M 318.056944 579.834375 
L 324.433801 579.834375 
L 324.433801 415.123993 
L 318.056944 415.123993 
z
" clip-path="url(#p398b2bfc86)" style="fill: #ff7f0e; fill-opacity: 0.75; stroke: #000000; stroke-width: 0.424734; stroke-linejoin: miter"/>
   </g>
   <g id="patch_150">
    <path d="M 324.433801 579.834375 
L 330.810657 579.834375 
L 330.810657 409.051721 
L 324.433801 409.051721 
z
" clip-path="url(#p398b2bfc86)" style="fill: #ff7f0e; fill-opacity: 0.75; stroke: #000000; stroke-width: 0.424734; stroke-linejoin: miter"/>
   </g>
   <g id="patch_151">
    <path d="M 330.810657 579.834375 
L 337.187514 579.834375 
L 337.187514 439.413081 
L 330.810657 439.413081 
z
" clip-path="url(#p398b2bfc86)" style="fill: #ff7f0e; fill-opacity: 0.75; stroke: #000000; stroke-width: 0.424734; stroke-linejoin: miter"/>
   </g>
   <g id="patch_152">
    <path d="M 337.187514 579.834375 
L 343.56437 579.834375 
L 343.56437 446.244388 
L 337.187514 446.244388 
z
" clip-path="url(#p398b2bfc86)" style="fill: #ff7f0e; fill-opacity: 0.75; stroke: #000000; stroke-width: 0.424734; stroke-linejoin: miter"/>
   </g>
   <g id="patch_153">
    <path d="M 343.56437 579.834375 
L 349.941227 579.834375 
L 349.941227 444.72632 
L 343.56437 444.72632 
z
" clip-path="url(#p398b2bfc86)" style="fill: #ff7f0e; fill-opacity: 0.75; stroke: #000000; stroke-width: 0.424734; stroke-linejoin: miter"/>
   </g>
   <g id="patch_154">
    <path d="M 349.941227 579.834375 
L 356.318083 579.834375 
L 356.318083 459.907 
L 349.941227 459.907 
z
" clip-path="url(#p398b2bfc86)" style="fill: #ff7f0e; fill-opacity: 0.75; stroke: #000000; stroke-width: 0.424734; stroke-linejoin: miter"/>
   </g>
   <g id="patch_155">
    <path d="M 356.318083 579.834375 
L 362.69494 579.834375 
L 362.69494 483.437055 
L 356.318083 483.437055 
z
" clip-path="url(#p398b2bfc86)" style="fill: #ff7f0e; fill-opacity: 0.75; stroke: #000000; stroke-width: 0.424734; stroke-linejoin: miter"/>
   </g>
   <g id="patch_156">
    <path d="M 362.69494 579.834375 
L 369.071796 579.834375 
L 369.071796 487.232225 
L 362.69494 487.232225 
z
" clip-path="url(#p398b2bfc86)" style="fill: #ff7f0e; fill-opacity: 0.75; stroke: #000000; stroke-width: 0.424734; stroke-linejoin: miter"/>
   </g>
   <g id="patch_157">
    <path d="M 369.071796 579.834375 
L 375.448652 579.834375 
L 375.448652 504.690007 
L 369.071796 504.690007 
z
" clip-path="url(#p398b2bfc86)" style="fill: #ff7f0e; fill-opacity: 0.75; stroke: #000000; stroke-width: 0.424734; stroke-linejoin: miter"/>
   </g>
   <g id="patch_158">
    <path d="M 375.448652 579.834375 
L 381.825509 579.834375 
L 381.825509 491.786429 
L 375.448652 491.786429 
z
" clip-path="url(#p398b2bfc86)" style="fill: #ff7f0e; fill-opacity: 0.75; stroke: #000000; stroke-width: 0.424734; stroke-linejoin: miter"/>
   </g>
   <g id="patch_159">
    <path d="M 381.825509 579.834375 
L 388.202365 579.834375 
L 388.202365 501.653871 
L 381.825509 501.653871 
z
" clip-path="url(#p398b2bfc86)" style="fill: #ff7f0e; fill-opacity: 0.75; stroke: #000000; stroke-width: 0.424734; stroke-linejoin: miter"/>
   </g>
   <g id="patch_160">
    <path d="M 388.202365 579.834375 
L 394.579222 579.834375 
L 394.579222 498.617735 
L 388.202365 498.617735 
z
" clip-path="url(#p398b2bfc86)" style="fill: #ff7f0e; fill-opacity: 0.75; stroke: #000000; stroke-width: 0.424734; stroke-linejoin: miter"/>
   </g>
   <g id="patch_161">
    <path d="M 394.579222 579.834375 
L 400.956078 579.834375 
L 400.956078 524.424892 
L 394.579222 524.424892 
z
" clip-path="url(#p398b2bfc86)" style="fill: #ff7f0e; fill-opacity: 0.75; stroke: #000000; stroke-width: 0.424734; stroke-linejoin: miter"/>
   </g>
   <g id="patch_162">
    <path d="M 400.956078 579.834375 
L 407.332935 579.834375 
L 407.332935 530.497164 
L 400.956078 530.497164 
z
" clip-path="url(#p398b2bfc86)" style="fill: #ff7f0e; fill-opacity: 0.75; stroke: #000000; stroke-width: 0.424734; stroke-linejoin: miter"/>
   </g>
   <g id="patch_163">
    <path d="M 407.332935 579.834375 
L 413.709791 579.834375 
L 413.709791 535.810402 
L 407.332935 535.810402 
z
" clip-path="url(#p398b2bfc86)" style="fill: #ff7f0e; fill-opacity: 0.75; stroke: #000000; stroke-width: 0.424734; stroke-linejoin: miter"/>
   </g>
   <g id="patch_164">
    <path d="M 413.709791 579.834375 
L 420.086648 579.834375 
L 420.086648 538.846538 
L 413.709791 538.846538 
z
" clip-path="url(#p398b2bfc86)" style="fill: #ff7f0e; fill-opacity: 0.75; stroke: #000000; stroke-width: 0.424734; stroke-linejoin: miter"/>
   </g>
   <g id="patch_165">
    <path d="M 420.086648 579.834375 
L 426.463504 579.834375 
L 426.463504 542.641708 
L 420.086648 542.641708 
z
" clip-path="url(#p398b2bfc86)" style="fill: #ff7f0e; fill-opacity: 0.75; stroke: #000000; stroke-width: 0.424734; stroke-linejoin: miter"/>
   </g>
   <g id="patch_166">
    <path d="M 426.463504 579.834375 
L 432.840361 579.834375 
L 432.840361 549.473014 
L 426.463504 549.473014 
z
" clip-path="url(#p398b2bfc86)" style="fill: #ff7f0e; fill-opacity: 0.75; stroke: #000000; stroke-width: 0.424734; stroke-linejoin: miter"/>
   </g>
   <g id="patch_167">
    <path d="M 432.840361 579.834375 
L 439.217217 579.834375 
L 439.217217 544.159776 
L 432.840361 544.159776 
z
" clip-path="url(#p398b2bfc86)" style="fill: #ff7f0e; fill-opacity: 0.75; stroke: #000000; stroke-width: 0.424734; stroke-linejoin: miter"/>
   </g>
   <g id="patch_168">
    <path d="M 439.217217 579.834375 
L 445.594073 579.834375 
L 445.594073 551.750116 
L 439.217217 551.750116 
z
" clip-path="url(#p398b2bfc86)" style="fill: #ff7f0e; fill-opacity: 0.75; stroke: #000000; stroke-width: 0.424734; stroke-linejoin: miter"/>
   </g>
   <g id="patch_169">
    <path d="M 445.594073 579.834375 
L 451.97093 579.834375 
L 451.97093 555.545286 
L 445.594073 555.545286 
z
" clip-path="url(#p398b2bfc86)" style="fill: #ff7f0e; fill-opacity: 0.75; stroke: #000000; stroke-width: 0.424734; stroke-linejoin: miter"/>
   </g>
   <g id="patch_170">
    <path d="M 451.97093 579.834375 
L 458.347786 579.834375 
L 458.347786 558.581422 
L 451.97093 558.581422 
z
" clip-path="url(#p398b2bfc86)" style="fill: #ff7f0e; fill-opacity: 0.75; stroke: #000000; stroke-width: 0.424734; stroke-linejoin: miter"/>
   </g>
   <g id="patch_171">
    <path d="M 458.347786 579.834375 
L 464.724643 579.834375 
L 464.724643 556.30432 
L 458.347786 556.30432 
z
" clip-path="url(#p398b2bfc86)" style="fill: #ff7f0e; fill-opacity: 0.75; stroke: #000000; stroke-width: 0.424734; stroke-linejoin: miter"/>
   </g>
   <g id="patch_172">
    <path d="M 464.724643 579.834375 
L 471.101499 579.834375 
L 471.101499 564.653695 
L 464.724643 564.653695 
z
" clip-path="url(#p398b2bfc86)" style="fill: #ff7f0e; fill-opacity: 0.75; stroke: #000000; stroke-width: 0.424734; stroke-linejoin: miter"/>
   </g>
   <g id="patch_173">
    <path d="M 471.101499 579.834375 
L 477.478356 579.834375 
L 477.478356 563.894661 
L 471.101499 563.894661 
z
" clip-path="url(#p398b2bfc86)" style="fill: #ff7f0e; fill-opacity: 0.75; stroke: #000000; stroke-width: 0.424734; stroke-linejoin: miter"/>
   </g>
   <g id="patch_174">
    <path d="M 477.478356 579.834375 
L 483.855212 579.834375 
L 483.855212 573.762103 
L 477.478356 573.762103 
z
" clip-path="url(#p398b2bfc86)" style="fill: #ff7f0e; fill-opacity: 0.75; stroke: #000000; stroke-width: 0.424734; stroke-linejoin: miter"/>
   </g>
   <g id="patch_175">
    <path d="M 483.855212 579.834375 
L 490.232069 579.834375 
L 490.232069 570.725967 
L 483.855212 570.725967 
z
" clip-path="url(#p398b2bfc86)" style="fill: #ff7f0e; fill-opacity: 0.75; stroke: #000000; stroke-width: 0.424734; stroke-linejoin: miter"/>
   </g>
   <g id="patch_176">
    <path d="M 490.232069 579.834375 
L 496.608925 579.834375 
L 496.608925 565.412729 
L 490.232069 565.412729 
z
" clip-path="url(#p398b2bfc86)" style="fill: #ff7f0e; fill-opacity: 0.75; stroke: #000000; stroke-width: 0.424734; stroke-linejoin: miter"/>
   </g>
   <g id="patch_177">
    <path d="M 496.608925 579.834375 
L 502.985781 579.834375 
L 502.985781 569.966933 
L 496.608925 569.966933 
z
" clip-path="url(#p398b2bfc86)" style="fill: #ff7f0e; fill-opacity: 0.75; stroke: #000000; stroke-width: 0.424734; stroke-linejoin: miter"/>
   </g>
   <g id="patch_178">
    <path d="M 502.985781 579.834375 
L 509.362638 579.834375 
L 509.362638 573.762103 
L 502.985781 573.762103 
z
" clip-path="url(#p398b2bfc86)" style="fill: #ff7f0e; fill-opacity: 0.75; stroke: #000000; stroke-width: 0.424734; stroke-linejoin: miter"/>
   </g>
   <g id="patch_179">
    <path d="M 509.362638 579.834375 
L 515.739494 579.834375 
L 515.739494 572.244035 
L 509.362638 572.244035 
z
" clip-path="url(#p398b2bfc86)" style="fill: #ff7f0e; fill-opacity: 0.75; stroke: #000000; stroke-width: 0.424734; stroke-linejoin: miter"/>
   </g>
   <g id="patch_180">
    <path d="M 515.739494 579.834375 
L 522.116351 579.834375 
L 522.116351 577.557273 
L 515.739494 577.557273 
z
" clip-path="url(#p398b2bfc86)" style="fill: #ff7f0e; fill-opacity: 0.75; stroke: #000000; stroke-width: 0.424734; stroke-linejoin: miter"/>
   </g>
   <g id="patch_181">
    <path d="M 522.116351 579.834375 
L 528.493207 579.834375 
L 528.493207 574.521137 
L 522.116351 574.521137 
z
" clip-path="url(#p398b2bfc86)" style="fill: #ff7f0e; fill-opacity: 0.75; stroke: #000000; stroke-width: 0.424734; stroke-linejoin: miter"/>
   </g>
   <g id="patch_182">
    <path d="M 528.493207 579.834375 
L 534.870064 579.834375 
L 534.870064 574.521137 
L 528.493207 574.521137 
z
" clip-path="url(#p398b2bfc86)" style="fill: #ff7f0e; fill-opacity: 0.75; stroke: #000000; stroke-width: 0.424734; stroke-linejoin: miter"/>
   </g>
   <g id="patch_183">
    <path d="M 534.870064 579.834375 
L 541.24692 579.834375 
L 541.24692 575.280171 
L 534.870064 575.280171 
z
" clip-path="url(#p398b2bfc86)" style="fill: #ff7f0e; fill-opacity: 0.75; stroke: #000000; stroke-width: 0.424734; stroke-linejoin: miter"/>
   </g>
   <g id="patch_184">
    <path d="M 541.24692 579.834375 
L 547.623777 579.834375 
L 547.623777 572.244035 
L 541.24692 572.244035 
z
" clip-path="url(#p398b2bfc86)" style="fill: #ff7f0e; fill-opacity: 0.75; stroke: #000000; stroke-width: 0.424734; stroke-linejoin: miter"/>
   </g>
   <g id="patch_185">
    <path d="M 547.623777 579.834375 
L 554.000633 579.834375 
L 554.000633 579.834375 
L 547.623777 579.834375 
z
" clip-path="url(#p398b2bfc86)" style="fill: #ff7f0e; fill-opacity: 0.75; stroke: #000000; stroke-width: 0.424734; stroke-linejoin: miter"/>
   </g>
   <g id="patch_186">
    <path d="M 554.000633 579.834375 
L 560.377489 579.834375 
L 560.377489 578.316307 
L 554.000633 578.316307 
z
" clip-path="url(#p398b2bfc86)" style="fill: #ff7f0e; fill-opacity: 0.75; stroke: #000000; stroke-width: 0.424734; stroke-linejoin: miter"/>
   </g>
   <g id="patch_187">
    <path d="M 560.377489 579.834375 
L 566.754346 579.834375 
L 566.754346 577.557273 
L 560.377489 577.557273 
z
" clip-path="url(#p398b2bfc86)" style="fill: #ff7f0e; fill-opacity: 0.75; stroke: #000000; stroke-width: 0.424734; stroke-linejoin: miter"/>
   </g>
   <g id="patch_188">
    <path d="M 566.754346 579.834375 
L 573.131202 579.834375 
L 573.131202 578.316307 
L 566.754346 578.316307 
z
" clip-path="url(#p398b2bfc86)" style="fill: #ff7f0e; fill-opacity: 0.75; stroke: #000000; stroke-width: 0.424734; stroke-linejoin: miter"/>
   </g>
   <g id="patch_189">
    <path d="M 573.131202 579.834375 
L 579.508059 579.834375 
L 579.508059 578.316307 
L 573.131202 578.316307 
z
" clip-path="url(#p398b2bfc86)" style="fill: #ff7f0e; fill-opacity: 0.75; stroke: #000000; stroke-width: 0.424734; stroke-linejoin: miter"/>
   </g>
   <g id="patch_190">
    <path d="M 579.508059 579.834375 
L 585.884915 579.834375 
L 585.884915 578.316307 
L 579.508059 578.316307 
z
" clip-path="url(#p398b2bfc86)" style="fill: #ff7f0e; fill-opacity: 0.75; stroke: #000000; stroke-width: 0.424734; stroke-linejoin: miter"/>
   </g>
   <g id="patch_191">
    <path d="M 585.884915 579.834375 
L 592.261772 579.834375 
L 592.261772 578.316307 
L 585.884915 578.316307 
z
" clip-path="url(#p398b2bfc86)" style="fill: #ff7f0e; fill-opacity: 0.75; stroke: #000000; stroke-width: 0.424734; stroke-linejoin: miter"/>
   </g>
   <g id="patch_192">
    <path d="M 592.261772 579.834375 
L 598.638628 579.834375 
L 598.638628 579.075341 
L 592.261772 579.075341 
z
" clip-path="url(#p398b2bfc86)" style="fill: #ff7f0e; fill-opacity: 0.75; stroke: #000000; stroke-width: 0.424734; stroke-linejoin: miter"/>
   </g>
   <g id="patch_193">
    <path d="M 598.638628 579.834375 
L 605.015485 579.834375 
L 605.015485 577.557273 
L 598.638628 577.557273 
z
" clip-path="url(#p398b2bfc86)" style="fill: #ff7f0e; fill-opacity: 0.75; stroke: #000000; stroke-width: 0.424734; stroke-linejoin: miter"/>
   </g>
   <g id="patch_194">
    <path d="M 605.015485 579.834375 
L 611.392341 579.834375 
L 611.392341 579.834375 
L 605.015485 579.834375 
z
" clip-path="url(#p398b2bfc86)" style="fill: #ff7f0e; fill-opacity: 0.75; stroke: #000000; stroke-width: 0.424734; stroke-linejoin: miter"/>
   </g>
   <g id="patch_195">
    <path d="M 611.392341 579.834375 
L 617.769197 579.834375 
L 617.769197 579.834375 
L 611.392341 579.834375 
z
" clip-path="url(#p398b2bfc86)" style="fill: #ff7f0e; fill-opacity: 0.75; stroke: #000000; stroke-width: 0.424734; stroke-linejoin: miter"/>
   </g>
   <g id="patch_196">
    <path d="M 617.769197 579.834375 
L 624.146054 579.834375 
L 624.146054 577.557273 
L 617.769197 577.557273 
z
" clip-path="url(#p398b2bfc86)" style="fill: #ff7f0e; fill-opacity: 0.75; stroke: #000000; stroke-width: 0.424734; stroke-linejoin: miter"/>
   </g>
   <g id="patch_197">
    <path d="M 624.146054 579.834375 
L 630.52291 579.834375 
L 630.52291 579.075341 
L 624.146054 579.075341 
z
" clip-path="url(#p398b2bfc86)" style="fill: #ff7f0e; fill-opacity: 0.75; stroke: #000000; stroke-width: 0.424734; stroke-linejoin: miter"/>
   </g>
   <g id="patch_198">
    <path d="M 630.52291 579.834375 
L 636.899767 579.834375 
L 636.899767 579.075341 
L 630.52291 579.075341 
z
" clip-path="url(#p398b2bfc86)" style="fill: #ff7f0e; fill-opacity: 0.75; stroke: #000000; stroke-width: 0.424734; stroke-linejoin: miter"/>
   </g>
   <g id="patch_199">
    <path d="M 636.899767 579.834375 
L 643.276623 579.834375 
L 643.276623 579.075341 
L 636.899767 579.075341 
z
" clip-path="url(#p398b2bfc86)" style="fill: #ff7f0e; fill-opacity: 0.75; stroke: #000000; stroke-width: 0.424734; stroke-linejoin: miter"/>
   </g>
   <g id="patch_200">
    <path d="M 643.276623 579.834375 
L 649.65348 579.834375 
L 649.65348 579.075341 
L 643.276623 579.075341 
z
" clip-path="url(#p398b2bfc86)" style="fill: #ff7f0e; fill-opacity: 0.75; stroke: #000000; stroke-width: 0.424734; stroke-linejoin: miter"/>
   </g>
   <g id="patch_201">
    <path d="M 649.65348 579.834375 
L 656.030336 579.834375 
L 656.030336 579.834375 
L 649.65348 579.834375 
z
" clip-path="url(#p398b2bfc86)" style="fill: #ff7f0e; fill-opacity: 0.75; stroke: #000000; stroke-width: 0.424734; stroke-linejoin: miter"/>
   </g>
   <g id="patch_202">
    <path d="M 656.030336 579.834375 
L 662.407193 579.834375 
L 662.407193 579.075341 
L 656.030336 579.075341 
z
" clip-path="url(#p398b2bfc86)" style="fill: #ff7f0e; fill-opacity: 0.75; stroke: #000000; stroke-width: 0.424734; stroke-linejoin: miter"/>
   </g>
   <g id="matplotlib.axis_1">
    <g id="xtick_1">
     <g id="line2d_1">
      <defs>
       <path id="m11a9d7349d" d="M 0 0 
L 0 3.5 
" style="stroke: #000000; stroke-width: 0.8"/>
      </defs>
      <g>
       <use xlink:href="#m11a9d7349d" x="67.845313" y="579.834375" style="stroke: #000000; stroke-width: 0.8"/>
      </g>
     </g>
     <g id="text_1">
      <!-- 0.100 -->
      <g transform="translate(39.217188 602.03125)scale(0.2 -0.2)">
       <defs>
        <path id="DejaVuSans-30" d="M 2034 4250 
Q 1547 4250 1301 3770 
Q 1056 3291 1056 2328 
Q 1056 1369 1301 889 
Q 1547 409 2034 409 
Q 2525 409 2770 889 
Q 3016 1369 3016 2328 
Q 3016 3291 2770 3770 
Q 2525 4250 2034 4250 
z
M 2034 4750 
Q 2819 4750 3233 4129 
Q 3647 3509 3647 2328 
Q 3647 1150 3233 529 
Q 2819 -91 2034 -91 
Q 1250 -91 836 529 
Q 422 1150 422 2328 
Q 422 3509 836 4129 
Q 1250 4750 2034 4750 
z
" transform="scale(0.015625)"/>
        <path id="DejaVuSans-2e" d="M 684 794 
L 1344 794 
L 1344 0 
L 684 0 
L 684 794 
z
" transform="scale(0.015625)"/>
        <path id="DejaVuSans-31" d="M 794 531 
L 1825 531 
L 1825 4091 
L 703 3866 
L 703 4441 
L 1819 4666 
L 2450 4666 
L 2450 531 
L 3481 531 
L 3481 0 
L 794 0 
L 794 531 
z
" transform="scale(0.015625)"/>
       </defs>
       <use xlink:href="#DejaVuSans-30"/>
       <use xlink:href="#DejaVuSans-2e" x="63.623047"/>
       <use xlink:href="#DejaVuSans-31" x="95.410156"/>
       <use xlink:href="#DejaVuSans-30" x="159.033203"/>
       <use xlink:href="#DejaVuSans-30" x="222.65625"/>
      </g>
     </g>
    </g>
    <g id="xtick_2">
     <g id="line2d_2">
      <g>
       <use xlink:href="#m11a9d7349d" x="131.254403" y="579.834375" style="stroke: #000000; stroke-width: 0.8"/>
      </g>
     </g>
     <g id="text_2">
      <!-- 0.125 -->
      <g transform="translate(102.626278 602.03125)scale(0.2 -0.2)">
       <defs>
        <path id="DejaVuSans-32" d="M 1228 531 
L 3431 531 
L 3431 0 
L 469 0 
L 469 531 
Q 828 903 1448 1529 
Q 2069 2156 2228 2338 
Q 2531 2678 2651 2914 
Q 2772 3150 2772 3378 
Q 2772 3750 2511 3984 
Q 2250 4219 1831 4219 
Q 1534 4219 1204 4116 
Q 875 4013 500 3803 
L 500 4441 
Q 881 4594 1212 4672 
Q 1544 4750 1819 4750 
Q 2544 4750 2975 4387 
Q 3406 4025 3406 3419 
Q 3406 3131 3298 2873 
Q 3191 2616 2906 2266 
Q 2828 2175 2409 1742 
Q 1991 1309 1228 531 
z
" transform="scale(0.015625)"/>
        <path id="DejaVuSans-35" d="M 691 4666 
L 3169 4666 
L 3169 4134 
L 1269 4134 
L 1269 2991 
Q 1406 3038 1543 3061 
Q 1681 3084 1819 3084 
Q 2600 3084 3056 2656 
Q 3513 2228 3513 1497 
Q 3513 744 3044 326 
Q 2575 -91 1722 -91 
Q 1428 -91 1123 -41 
Q 819 9 494 109 
L 494 744 
Q 775 591 1075 516 
Q 1375 441 1709 441 
Q 2250 441 2565 725 
Q 2881 1009 2881 1497 
Q 2881 1984 2565 2268 
Q 2250 2553 1709 2553 
Q 1456 2553 1204 2497 
Q 953 2441 691 2322 
L 691 4666 
z
" transform="scale(0.015625)"/>
       </defs>
       <use xlink:href="#DejaVuSans-30"/>
       <use xlink:href="#DejaVuSans-2e" x="63.623047"/>
       <use xlink:href="#DejaVuSans-31" x="95.410156"/>
       <use xlink:href="#DejaVuSans-32" x="159.033203"/>
       <use xlink:href="#DejaVuSans-35" x="222.65625"/>
      </g>
     </g>
    </g>
    <g id="xtick_3">
     <g id="line2d_3">
      <g>
       <use xlink:href="#m11a9d7349d" x="194.663494" y="579.834375" style="stroke: #000000; stroke-width: 0.8"/>
      </g>
     </g>
     <g id="text_3">
      <!-- 0.150 -->
      <g transform="translate(166.035369 602.03125)scale(0.2 -0.2)">
       <use xlink:href="#DejaVuSans-30"/>
       <use xlink:href="#DejaVuSans-2e" x="63.623047"/>
       <use xlink:href="#DejaVuSans-31" x="95.410156"/>
       <use xlink:href="#DejaVuSans-35" x="159.033203"/>
       <use xlink:href="#DejaVuSans-30" x="222.65625"/>
      </g>
     </g>
    </g>
    <g id="xtick_4">
     <g id="line2d_4">
      <g>
       <use xlink:href="#m11a9d7349d" x="258.072585" y="579.834375" style="stroke: #000000; stroke-width: 0.8"/>
      </g>
     </g>
     <g id="text_4">
      <!-- 0.175 -->
      <g transform="translate(229.44446 602.03125)scale(0.2 -0.2)">
       <defs>
        <path id="DejaVuSans-37" d="M 525 4666 
L 3525 4666 
L 3525 4397 
L 1831 0 
L 1172 0 
L 2766 4134 
L 525 4134 
L 525 4666 
z
" transform="scale(0.015625)"/>
       </defs>
       <use xlink:href="#DejaVuSans-30"/>
       <use xlink:href="#DejaVuSans-2e" x="63.623047"/>
       <use xlink:href="#DejaVuSans-31" x="95.410156"/>
       <use xlink:href="#DejaVuSans-37" x="159.033203"/>
       <use xlink:href="#DejaVuSans-35" x="222.65625"/>
      </g>
     </g>
    </g>
    <g id="xtick_5">
     <g id="line2d_5">
      <g>
       <use xlink:href="#m11a9d7349d" x="321.481676" y="579.834375" style="stroke: #000000; stroke-width: 0.8"/>
      </g>
     </g>
     <g id="text_5">
      <!-- 0.200 -->
      <g transform="translate(292.853551 602.03125)scale(0.2 -0.2)">
       <use xlink:href="#DejaVuSans-30"/>
       <use xlink:href="#DejaVuSans-2e" x="63.623047"/>
       <use xlink:href="#DejaVuSans-32" x="95.410156"/>
       <use xlink:href="#DejaVuSans-30" x="159.033203"/>
       <use xlink:href="#DejaVuSans-30" x="222.65625"/>
      </g>
     </g>
    </g>
    <g id="xtick_6">
     <g id="line2d_6">
      <g>
       <use xlink:href="#m11a9d7349d" x="384.890767" y="579.834375" style="stroke: #000000; stroke-width: 0.8"/>
      </g>
     </g>
     <g id="text_6">
      <!-- 0.225 -->
      <g transform="translate(356.262642 602.03125)scale(0.2 -0.2)">
       <use xlink:href="#DejaVuSans-30"/>
       <use xlink:href="#DejaVuSans-2e" x="63.623047"/>
       <use xlink:href="#DejaVuSans-32" x="95.410156"/>
       <use xlink:href="#DejaVuSans-32" x="159.033203"/>
       <use xlink:href="#DejaVuSans-35" x="222.65625"/>
      </g>
     </g>
    </g>
    <g id="xtick_7">
     <g id="line2d_7">
      <g>
       <use xlink:href="#m11a9d7349d" x="448.299858" y="579.834375" style="stroke: #000000; stroke-width: 0.8"/>
      </g>
     </g>
     <g id="text_7">
      <!-- 0.250 -->
      <g transform="translate(419.671733 602.03125)scale(0.2 -0.2)">
       <use xlink:href="#DejaVuSans-30"/>
       <use xlink:href="#DejaVuSans-2e" x="63.623047"/>
       <use xlink:href="#DejaVuSans-32" x="95.410156"/>
       <use xlink:href="#DejaVuSans-35" x="159.033203"/>
       <use xlink:href="#DejaVuSans-30" x="222.65625"/>
      </g>
     </g>
    </g>
    <g id="xtick_8">
     <g id="line2d_8">
      <g>
       <use xlink:href="#m11a9d7349d" x="511.708949" y="579.834375" style="stroke: #000000; stroke-width: 0.8"/>
      </g>
     </g>
     <g id="text_8">
      <!-- 0.275 -->
      <g transform="translate(483.080824 602.03125)scale(0.2 -0.2)">
       <use xlink:href="#DejaVuSans-30"/>
       <use xlink:href="#DejaVuSans-2e" x="63.623047"/>
       <use xlink:href="#DejaVuSans-32" x="95.410156"/>
       <use xlink:href="#DejaVuSans-37" x="159.033203"/>
       <use xlink:href="#DejaVuSans-35" x="222.65625"/>
      </g>
     </g>
    </g>
    <g id="xtick_9">
     <g id="line2d_9">
      <g>
       <use xlink:href="#m11a9d7349d" x="575.11804" y="579.834375" style="stroke: #000000; stroke-width: 0.8"/>
      </g>
     </g>
     <g id="text_9">
      <!-- 0.300 -->
      <g transform="translate(546.489915 602.03125)scale(0.2 -0.2)">
       <defs>
        <path id="DejaVuSans-33" d="M 2597 2516 
Q 3050 2419 3304 2112 
Q 3559 1806 3559 1356 
Q 3559 666 3084 287 
Q 2609 -91 1734 -91 
Q 1441 -91 1130 -33 
Q 819 25 488 141 
L 488 750 
Q 750 597 1062 519 
Q 1375 441 1716 441 
Q 2309 441 2620 675 
Q 2931 909 2931 1356 
Q 2931 1769 2642 2001 
Q 2353 2234 1838 2234 
L 1294 2234 
L 1294 2753 
L 1863 2753 
Q 2328 2753 2575 2939 
Q 2822 3125 2822 3475 
Q 2822 3834 2567 4026 
Q 2313 4219 1838 4219 
Q 1578 4219 1281 4162 
Q 984 4106 628 3988 
L 628 4550 
Q 988 4650 1302 4700 
Q 1616 4750 1894 4750 
Q 2613 4750 3031 4423 
Q 3450 4097 3450 3541 
Q 3450 3153 3228 2886 
Q 3006 2619 2597 2516 
z
" transform="scale(0.015625)"/>
       </defs>
       <use xlink:href="#DejaVuSans-30"/>
       <use xlink:href="#DejaVuSans-2e" x="63.623047"/>
       <use xlink:href="#DejaVuSans-33" x="95.410156"/>
       <use xlink:href="#DejaVuSans-30" x="159.033203"/>
       <use xlink:href="#DejaVuSans-30" x="222.65625"/>
      </g>
     </g>
    </g>
    <g id="text_10">
     <!-- Intensity (Arb. Units) -->
     <g transform="translate(217.187109 629.186719)scale(0.25 -0.25)">
      <defs>
       <path id="DejaVuSans-49" d="M 628 4666 
L 1259 4666 
L 1259 0 
L 628 0 
L 628 4666 
z
" transform="scale(0.015625)"/>
       <path id="DejaVuSans-6e" d="M 3513 2113 
L 3513 0 
L 2938 0 
L 2938 2094 
Q 2938 2591 2744 2837 
Q 2550 3084 2163 3084 
Q 1697 3084 1428 2787 
Q 1159 2491 1159 1978 
L 1159 0 
L 581 0 
L 581 3500 
L 1159 3500 
L 1159 2956 
Q 1366 3272 1645 3428 
Q 1925 3584 2291 3584 
Q 2894 3584 3203 3211 
Q 3513 2838 3513 2113 
z
" transform="scale(0.015625)"/>
       <path id="DejaVuSans-74" d="M 1172 4494 
L 1172 3500 
L 2356 3500 
L 2356 3053 
L 1172 3053 
L 1172 1153 
Q 1172 725 1289 603 
Q 1406 481 1766 481 
L 2356 481 
L 2356 0 
L 1766 0 
Q 1100 0 847 248 
Q 594 497 594 1153 
L 594 3053 
L 172 3053 
L 172 3500 
L 594 3500 
L 594 4494 
L 1172 4494 
z
" transform="scale(0.015625)"/>
       <path id="DejaVuSans-65" d="M 3597 1894 
L 3597 1613 
L 953 1613 
Q 991 1019 1311 708 
Q 1631 397 2203 397 
Q 2534 397 2845 478 
Q 3156 559 3463 722 
L 3463 178 
Q 3153 47 2828 -22 
Q 2503 -91 2169 -91 
Q 1331 -91 842 396 
Q 353 884 353 1716 
Q 353 2575 817 3079 
Q 1281 3584 2069 3584 
Q 2775 3584 3186 3129 
Q 3597 2675 3597 1894 
z
M 3022 2063 
Q 3016 2534 2758 2815 
Q 2500 3097 2075 3097 
Q 1594 3097 1305 2825 
Q 1016 2553 972 2059 
L 3022 2063 
z
" transform="scale(0.015625)"/>
       <path id="DejaVuSans-73" d="M 2834 3397 
L 2834 2853 
Q 2591 2978 2328 3040 
Q 2066 3103 1784 3103 
Q 1356 3103 1142 2972 
Q 928 2841 928 2578 
Q 928 2378 1081 2264 
Q 1234 2150 1697 2047 
L 1894 2003 
Q 2506 1872 2764 1633 
Q 3022 1394 3022 966 
Q 3022 478 2636 193 
Q 2250 -91 1575 -91 
Q 1294 -91 989 -36 
Q 684 19 347 128 
L 347 722 
Q 666 556 975 473 
Q 1284 391 1588 391 
Q 1994 391 2212 530 
Q 2431 669 2431 922 
Q 2431 1156 2273 1281 
Q 2116 1406 1581 1522 
L 1381 1569 
Q 847 1681 609 1914 
Q 372 2147 372 2553 
Q 372 3047 722 3315 
Q 1072 3584 1716 3584 
Q 2034 3584 2315 3537 
Q 2597 3491 2834 3397 
z
" transform="scale(0.015625)"/>
       <path id="DejaVuSans-69" d="M 603 3500 
L 1178 3500 
L 1178 0 
L 603 0 
L 603 3500 
z
M 603 4863 
L 1178 4863 
L 1178 4134 
L 603 4134 
L 603 4863 
z
" transform="scale(0.015625)"/>
       <path id="DejaVuSans-79" d="M 2059 -325 
Q 1816 -950 1584 -1140 
Q 1353 -1331 966 -1331 
L 506 -1331 
L 506 -850 
L 844 -850 
Q 1081 -850 1212 -737 
Q 1344 -625 1503 -206 
L 1606 56 
L 191 3500 
L 800 3500 
L 1894 763 
L 2988 3500 
L 3597 3500 
L 2059 -325 
z
" transform="scale(0.015625)"/>
       <path id="DejaVuSans-20" transform="scale(0.015625)"/>
       <path id="DejaVuSans-28" d="M 1984 4856 
Q 1566 4138 1362 3434 
Q 1159 2731 1159 2009 
Q 1159 1288 1364 580 
Q 1569 -128 1984 -844 
L 1484 -844 
Q 1016 -109 783 600 
Q 550 1309 550 2009 
Q 550 2706 781 3412 
Q 1013 4119 1484 4856 
L 1984 4856 
z
" transform="scale(0.015625)"/>
       <path id="DejaVuSans-41" d="M 2188 4044 
L 1331 1722 
L 3047 1722 
L 2188 4044 
z
M 1831 4666 
L 2547 4666 
L 4325 0 
L 3669 0 
L 3244 1197 
L 1141 1197 
L 716 0 
L 50 0 
L 1831 4666 
z
" transform="scale(0.015625)"/>
       <path id="DejaVuSans-72" d="M 2631 2963 
Q 2534 3019 2420 3045 
Q 2306 3072 2169 3072 
Q 1681 3072 1420 2755 
Q 1159 2438 1159 1844 
L 1159 0 
L 581 0 
L 581 3500 
L 1159 3500 
L 1159 2956 
Q 1341 3275 1631 3429 
Q 1922 3584 2338 3584 
Q 2397 3584 2469 3576 
Q 2541 3569 2628 3553 
L 2631 2963 
z
" transform="scale(0.015625)"/>
       <path id="DejaVuSans-62" d="M 3116 1747 
Q 3116 2381 2855 2742 
Q 2594 3103 2138 3103 
Q 1681 3103 1420 2742 
Q 1159 2381 1159 1747 
Q 1159 1113 1420 752 
Q 1681 391 2138 391 
Q 2594 391 2855 752 
Q 3116 1113 3116 1747 
z
M 1159 2969 
Q 1341 3281 1617 3432 
Q 1894 3584 2278 3584 
Q 2916 3584 3314 3078 
Q 3713 2572 3713 1747 
Q 3713 922 3314 415 
Q 2916 -91 2278 -91 
Q 1894 -91 1617 61 
Q 1341 213 1159 525 
L 1159 0 
L 581 0 
L 581 4863 
L 1159 4863 
L 1159 2969 
z
" transform="scale(0.015625)"/>
       <path id="DejaVuSans-55" d="M 556 4666 
L 1191 4666 
L 1191 1831 
Q 1191 1081 1462 751 
Q 1734 422 2344 422 
Q 2950 422 3222 751 
Q 3494 1081 3494 1831 
L 3494 4666 
L 4128 4666 
L 4128 1753 
Q 4128 841 3676 375 
Q 3225 -91 2344 -91 
Q 1459 -91 1007 375 
Q 556 841 556 1753 
L 556 4666 
z
" transform="scale(0.015625)"/>
       <path id="DejaVuSans-29" d="M 513 4856 
L 1013 4856 
Q 1481 4119 1714 3412 
Q 1947 2706 1947 2009 
Q 1947 1309 1714 600 
Q 1481 -109 1013 -844 
L 513 -844 
Q 928 -128 1133 580 
Q 1338 1288 1338 2009 
Q 1338 2731 1133 3434 
Q 928 4138 513 4856 
z
" transform="scale(0.015625)"/>
      </defs>
      <use xlink:href="#DejaVuSans-49"/>
      <use xlink:href="#DejaVuSans-6e" x="29.492188"/>
      <use xlink:href="#DejaVuSans-74" x="92.871094"/>
      <use xlink:href="#DejaVuSans-65" x="132.080078"/>
      <use xlink:href="#DejaVuSans-6e" x="193.603516"/>
      <use xlink:href="#DejaVuSans-73" x="256.982422"/>
      <use xlink:href="#DejaVuSans-69" x="309.082031"/>
      <use xlink:href="#DejaVuSans-74" x="336.865234"/>
      <use xlink:href="#DejaVuSans-79" x="376.074219"/>
      <use xlink:href="#DejaVuSans-20" x="435.253906"/>
      <use xlink:href="#DejaVuSans-28" x="467.041016"/>
      <use xlink:href="#DejaVuSans-41" x="506.054688"/>
      <use xlink:href="#DejaVuSans-72" x="574.462891"/>
      <use xlink:href="#DejaVuSans-62" x="615.576172"/>
      <use xlink:href="#DejaVuSans-2e" x="679.052734"/>
      <use xlink:href="#DejaVuSans-20" x="710.839844"/>
      <use xlink:href="#DejaVuSans-55" x="742.626953"/>
      <use xlink:href="#DejaVuSans-6e" x="815.820312"/>
      <use xlink:href="#DejaVuSans-69" x="879.199219"/>
      <use xlink:href="#DejaVuSans-74" x="906.982422"/>
      <use xlink:href="#DejaVuSans-73" x="946.191406"/>
      <use xlink:href="#DejaVuSans-29" x="998.291016"/>
     </g>
    </g>
   </g>
   <g id="matplotlib.axis_2">
    <g id="ytick_1">
     <g id="line2d_10">
      <defs>
       <path id="m33554eb43a" d="M 0 0 
L -3.5 0 
" style="stroke: #000000; stroke-width: 0.8"/>
      </defs>
      <g>
       <use xlink:href="#m33554eb43a" x="67.845313" y="579.834375" style="stroke: #000000; stroke-width: 0.8"/>
      </g>
     </g>
     <g id="text_11">
      <!-- 0 -->
      <g transform="translate(48.120313 587.432812)scale(0.2 -0.2)">
       <use xlink:href="#DejaVuSans-30"/>
      </g>
     </g>
    </g>
    <g id="ytick_2">
     <g id="line2d_11">
      <g>
       <use xlink:href="#m33554eb43a" x="67.845313" y="493.548661" style="stroke: #000000; stroke-width: 0.8"/>
      </g>
     </g>
     <g id="text_12">
      <!-- 5 -->
      <g transform="translate(48.120313 501.147098)scale(0.2 -0.2)">
       <use xlink:href="#DejaVuSans-35"/>
      </g>
     </g>
    </g>
    <g id="ytick_3">
     <g id="line2d_12">
      <g>
       <use xlink:href="#m33554eb43a" x="67.845313" y="407.262946" style="stroke: #000000; stroke-width: 0.8"/>
      </g>
     </g>
     <g id="text_13">
      <!-- 10 -->
      <g transform="translate(35.395313 414.861384)scale(0.2 -0.2)">
       <use xlink:href="#DejaVuSans-31"/>
       <use xlink:href="#DejaVuSans-30" x="63.623047"/>
      </g>
     </g>
    </g>
    <g id="ytick_4">
     <g id="line2d_13">
      <g>
       <use xlink:href="#m33554eb43a" x="67.845313" y="320.977232" style="stroke: #000000; stroke-width: 0.8"/>
      </g>
     </g>
     <g id="text_14">
      <!-- 15 -->
      <g transform="translate(35.395313 328.57567)scale(0.2 -0.2)">
       <use xlink:href="#DejaVuSans-31"/>
       <use xlink:href="#DejaVuSans-35" x="63.623047"/>
      </g>
     </g>
    </g>
    <g id="ytick_5">
     <g id="line2d_14">
      <g>
       <use xlink:href="#m33554eb43a" x="67.845313" y="234.691518" style="stroke: #000000; stroke-width: 0.8"/>
      </g>
     </g>
     <g id="text_15">
      <!-- 20 -->
      <g transform="translate(35.395313 242.289955)scale(0.2 -0.2)">
       <use xlink:href="#DejaVuSans-32"/>
       <use xlink:href="#DejaVuSans-30" x="63.623047"/>
      </g>
     </g>
    </g>
    <g id="ytick_6">
     <g id="line2d_15">
      <g>
       <use xlink:href="#m33554eb43a" x="67.845313" y="148.405804" style="stroke: #000000; stroke-width: 0.8"/>
      </g>
     </g>
     <g id="text_16">
      <!-- 25 -->
      <g transform="translate(35.395313 156.004241)scale(0.2 -0.2)">
       <use xlink:href="#DejaVuSans-32"/>
       <use xlink:href="#DejaVuSans-35" x="63.623047"/>
      </g>
     </g>
    </g>
    <g id="ytick_7">
     <g id="line2d_16">
      <g>
       <use xlink:href="#m33554eb43a" x="67.845313" y="62.120089" style="stroke: #000000; stroke-width: 0.8"/>
      </g>
     </g>
     <g id="text_17">
      <!-- 30 -->
      <g transform="translate(35.395313 69.718527)scale(0.2 -0.2)">
       <use xlink:href="#DejaVuSans-33"/>
       <use xlink:href="#DejaVuSans-30" x="63.623047"/>
      </g>
     </g>
    </g>
    <g id="text_18">
     <!-- Density -->
     <g transform="translate(26.196094 355.555859)rotate(-90)scale(0.25 -0.25)">
      <defs>
       <path id="DejaVuSans-44" d="M 1259 4147 
L 1259 519 
L 2022 519 
Q 2988 519 3436 956 
Q 3884 1394 3884 2338 
Q 3884 3275 3436 3711 
Q 2988 4147 2022 4147 
L 1259 4147 
z
M 628 4666 
L 1925 4666 
Q 3281 4666 3915 4102 
Q 4550 3538 4550 2338 
Q 4550 1131 3912 565 
Q 3275 0 1925 0 
L 628 0 
L 628 4666 
z
" transform="scale(0.015625)"/>
      </defs>
      <use xlink:href="#DejaVuSans-44"/>
      <use xlink:href="#DejaVuSans-65" x="77.001953"/>
      <use xlink:href="#DejaVuSans-6e" x="138.525391"/>
      <use xlink:href="#DejaVuSans-73" x="201.904297"/>
      <use xlink:href="#DejaVuSans-69" x="254.003906"/>
      <use xlink:href="#DejaVuSans-74" x="281.787109"/>
      <use xlink:href="#DejaVuSans-79" x="320.996094"/>
     </g>
    </g>
   </g>
   <g id="line2d_17">
    <path d="M 55.075876 579.8298 
L 76.809787 579.695027 
L 109.410654 579.041624 
L 116.655292 578.824876 
L 123.899929 578.402957 
L 131.144566 577.749929 
L 142.011521 576.494675 
L 152.878477 575.013354 
L 160.123114 573.765192 
L 167.367751 572.16813 
L 170.99007 571.211505 
L 174.612389 570.137161 
L 178.234707 568.933801 
L 181.857026 567.58693 
L 185.479344 566.07931 
L 189.101663 564.393155 
L 192.723981 562.513573 
L 196.3463 560.43224 
L 199.968619 558.150005 
L 203.590937 555.677196 
L 207.213256 553.030988 
L 210.835574 550.230155 
L 218.080211 544.209724 
L 221.70253 540.983336 
L 225.324849 537.586138 
L 228.947167 533.984971 
L 232.569486 530.141498 
L 236.191804 526.016903 
L 239.814123 521.576065 
L 243.436441 516.791601 
L 247.05876 511.648266 
L 250.681079 506.147363 
L 254.303397 500.309761 
L 257.925716 494.175661 
L 265.170353 481.246213 
L 290.526583 434.728196 
L 297.77122 422.430868 
L 301.393538 416.647082 
L 305.015857 411.155186 
L 308.638176 405.973234 
L 312.260494 401.094675 
L 315.882813 396.48704 
L 319.505131 392.101586 
L 326.749768 383.849918 
L 330.372087 380.007082 
L 333.994406 376.460457 
L 337.616724 373.347134 
L 341.239043 370.81092 
L 344.861361 368.957685 
L 348.48368 367.817503 
L 352.105998 367.329001 
L 355.728317 367.353923 
L 359.350636 367.717983 
L 366.595273 368.890447 
L 373.83991 370.374415 
L 377.462228 371.351407 
L 381.084547 372.577686 
L 384.706866 374.086225 
L 388.329184 375.873791 
L 391.951503 377.921837 
L 395.573821 380.22753 
L 399.19614 382.827587 
L 402.818458 385.801267 
L 406.440777 389.248968 
L 410.063096 393.254609 
L 413.685414 397.847715 
L 417.307733 402.98145 
L 420.930051 408.535865 
L 439.041644 437.372555 
L 449.9086 453.943968 
L 457.153237 465.526549 
L 471.642511 489.424511 
L 475.26483 495.048335 
L 478.887148 500.355174 
L 482.509467 505.290517 
L 486.131785 509.829624 
L 489.754104 513.979659 
L 493.376423 517.778052 
L 496.998741 521.286288 
L 504.243378 527.731127 
L 515.110334 536.80908 
L 522.354971 542.53366 
L 525.97729 545.188127 
L 529.599608 547.654296 
L 533.221927 549.91976 
L 536.844245 551.997444 
L 544.088883 555.730472 
L 551.33352 559.147205 
L 558.578157 562.354958 
L 565.822794 565.242922 
L 573.067431 567.701943 
L 580.312068 569.789552 
L 591.179024 572.558224 
L 598.423661 574.220484 
L 605.668298 575.615977 
L 612.912935 576.670035 
L 620.157572 577.43894 
L 631.024528 578.304453 
L 634.045313 578.506558 
L 634.045313 578.506558 
" clip-path="url(#p398b2bfc86)" style="fill: none; stroke: #8c564b; stroke-width: 4; stroke-linecap: square"/>
   </g>
   <g id="line2d_18">
    <path d="M 316.503282 355.491518 
L 322.794258 353.765804 
L 334.897464 352.040089 
L 333.342058 350.314375 
L 314.518641 348.588661 
L 317.853689 346.862946 
L 308.922106 345.137232 
L 340.234652 343.411518 
L 303.383094 341.685804 
L 303.103073 339.960089 
L 334.01866 338.234375 
L 306.735641 336.508661 
L 320.597324 334.782946 
L 298.99807 333.057232 
L 321.887902 331.331518 
L 319.387136 329.605804 
L 293.232668 327.880089 
L 314.962087 326.154375 
L 305.87479 324.428661 
L 283.656722 322.702946 
L 316.750006 320.977232 
L 323.604616 319.251518 
L 305.475904 317.525804 
L 308.302536 315.800089 
L 291.7719 314.074375 
L 317.874287 312.348661 
L 299.763565 310.622946 
L 298.092205 308.897232 
L 309.801363 307.171518 
L 292.145351 305.445804 
L 297.43401 303.720089 
L 284.441077 301.994375 
L 301.509646 300.268661 
L 316.594707 298.542946 
L 290.499124 296.817232 
L 267.172423 295.091518 
L 278.279397 293.365804 
L 285.828485 291.640089 
L 275.65096 289.914375 
L 266.301291 288.188661 
L 266.683548 286.462946 
L 292.865983 284.737232 
L 298.344863 283.011518 
L 287.686627 281.285804 
L 302.103288 279.560089 
L 291.757576 277.834375 
L 316.563376 276.108661 
L 286.900836 274.382946 
L 304.441045 272.657232 
L 309.386906 270.931518 
L 309.172761 269.205804 
L 309.386377 267.480089 
L 284.647474 264.028661 
L 334.91553 262.302946 
L 286.16603 260.577232 
L 276.164364 258.851518 
L 288.653114 255.400089 
L 284.689767 253.674375 
L 281.029608 251.948661 
L 283.23584 250.222946 
L 288.464027 248.497232 
L 322.875252 246.771518 
L 307.62276 245.045804 
L 285.630856 243.320089 
L 296.324393 241.594375 
L 264.994424 239.868661 
L 260.67932 238.142946 
L 273.280435 236.417232 
L 283.650146 234.691518 
L 325.005516 232.965804 
L 315.405268 231.240089 
L 323.145334 229.514375 
L 265.836113 227.788661 
L 298.365159 226.062946 
L 291.315151 224.337232 
L 315.086318 222.611518 
L 294.83116 220.885804 
L 318.991802 219.160089 
L 312.875854 217.434375 
L 303.869475 215.708661 
L 301.886837 213.982946 
L 348.586085 212.257232 
L 340.496154 210.531518 
L 352.700196 208.805804 
L 349.056894 207.080089 
L 372.922776 205.354375 
L 356.832864 203.628661 
L 363.733546 201.902946 
L 357.879515 200.177232 
L 366.395053 198.451518 
L 353.177506 196.725804 
L 313.042907 195.000089 
L 310.561529 193.274375 
L 307.311747 191.548661 
L 302.221283 189.822946 
L 295.670015 188.097232 
L 274.246658 186.371518 
L 331.951816 184.645804 
L 315.270946 182.920089 
L 292.176153 181.194375 
L 278.494865 179.468661 
L 296.507017 177.742946 
L 294.424677 176.017232 
L 287.261851 174.291518 
L 300.582956 172.565804 
L 311.469851 170.840089 
L 310.467231 169.114375 
L 280.182779 167.388661 
L 293.972236 165.662946 
L 303.180968 163.937232 
L 294.617771 162.211518 
L 310.252671 160.485804 
L 279.473182 158.760089 
L 316.722605 157.034375 
L 290.17458 155.308661 
L 316.123029 153.582946 
L 299.199894 151.857232 
L 274.194954 150.131518 
L 289.090664 148.405804 
L 294.54717 146.680089 
L 340.234538 144.954375 
L 340.918208 143.228661 
L 347.187716 141.502946 
L 346.037508 139.777232 
L 354.642167 138.051518 
L 319.257348 136.325804 
L 336.364695 134.600089 
L 338.777248 132.874375 
L 340.470793 131.148661 
L 337.345242 129.422946 
L 357.347138 127.697232 
L 373.987227 125.971518 
L 345.51526 124.245804 
L 363.235524 122.520089 
L 335.843618 120.794375 
L 344.675196 119.068661 
L 367.181146 115.617232 
L 363.184501 113.891518 
L 336.484617 112.165804 
L 343.001417 110.440089 
L 351.354325 108.714375 
L 362.209812 106.988661 
L 346.731042 105.262946 
L 341.467252 103.537232 
L 354.989878 101.811518 
L 354.51597 100.085804 
L 360.534257 98.360089 
L 298.324794 96.634375 
L 300.656051 94.908661 
L 305.013447 93.182946 
L 317.828291 91.457232 
L 332.188487 89.731518 
L 310.401431 88.005804 
L 355.23082 86.280089 
L 346.753001 84.554375 
L 321.365125 81.102946 
L 297.259209 79.377232 
L 304.716531 77.651518 
L 295.250039 75.925804 
L 300.996468 74.200089 
L 319.31045 72.474375 
L 319.31045 72.474375 
" clip-path="url(#p398b2bfc86)" style="fill: none; stroke: #9467bd; stroke-width: 2.5; stroke-linecap: square"/>
   </g>
   <g id="LineCollection_1">
    <path d="M 389.238964 579.834375 
L 389.238964 62.120089 
" clip-path="url(#p398b2bfc86)" style="fill: none; stroke-dasharray: 5.55,2.4; stroke-dashoffset: 0; stroke: #1f77b4; stroke-width: 1.5"/>
   </g>
   <g id="LineCollection_2">
    <path d="M 274.953269 579.834375 
L 274.953269 62.120089 
" clip-path="url(#p398b2bfc86)" style="fill: none; stroke-dasharray: 5.55,2.4; stroke-dashoffset: 0; stroke: #ff7f0e; stroke-width: 1.5"/>
   </g>
   <g id="LineCollection_3">
    <path d="M 369.324298 579.834375 
L 369.324298 62.120089 
" clip-path="url(#p398b2bfc86)" style="fill: none; stroke-dasharray: 5.55,2.4; stroke-dashoffset: 0; stroke: #8c564b; stroke-width: 1.5"/>
   </g>
   <g id="patch_203">
    <path d="M 67.845313 579.834375 
L 67.845313 36.234375 
" style="fill: none; stroke: #000000; stroke-width: 0.8; stroke-linejoin: miter; stroke-linecap: square"/>
   </g>
   <g id="patch_204">
    <path d="M 625.845312 579.834375 
L 625.845312 36.234375 
" style="fill: none; stroke: #000000; stroke-width: 0.8; stroke-linejoin: miter; stroke-linecap: square"/>
   </g>
   <g id="patch_205">
    <path d="M 67.845313 579.834375 
L 625.845313 579.834375 
" style="fill: none; stroke: #000000; stroke-width: 0.8; stroke-linejoin: miter; stroke-linecap: square"/>
   </g>
   <g id="patch_206">
    <path d="M 67.845313 36.234375 
L 625.845313 36.234375 
" style="fill: none; stroke: #000000; stroke-width: 0.8; stroke-linejoin: miter; stroke-linecap: square"/>
   </g>
   <g id="text_19">
    <!-- Intensity Comparison -->
    <g transform="translate(186.980469 29.995312)scale(0.3 -0.3)">
     <defs>
      <path id="DejaVuSans-43" d="M 4122 4306 
L 4122 3641 
Q 3803 3938 3442 4084 
Q 3081 4231 2675 4231 
Q 1875 4231 1450 3742 
Q 1025 3253 1025 2328 
Q 1025 1406 1450 917 
Q 1875 428 2675 428 
Q 3081 428 3442 575 
Q 3803 722 4122 1019 
L 4122 359 
Q 3791 134 3420 21 
Q 3050 -91 2638 -91 
Q 1578 -91 968 557 
Q 359 1206 359 2328 
Q 359 3453 968 4101 
Q 1578 4750 2638 4750 
Q 3056 4750 3426 4639 
Q 3797 4528 4122 4306 
z
" transform="scale(0.015625)"/>
      <path id="DejaVuSans-6f" d="M 1959 3097 
Q 1497 3097 1228 2736 
Q 959 2375 959 1747 
Q 959 1119 1226 758 
Q 1494 397 1959 397 
Q 2419 397 2687 759 
Q 2956 1122 2956 1747 
Q 2956 2369 2687 2733 
Q 2419 3097 1959 3097 
z
M 1959 3584 
Q 2709 3584 3137 3096 
Q 3566 2609 3566 1747 
Q 3566 888 3137 398 
Q 2709 -91 1959 -91 
Q 1206 -91 779 398 
Q 353 888 353 1747 
Q 353 2609 779 3096 
Q 1206 3584 1959 3584 
z
" transform="scale(0.015625)"/>
      <path id="DejaVuSans-6d" d="M 3328 2828 
Q 3544 3216 3844 3400 
Q 4144 3584 4550 3584 
Q 5097 3584 5394 3201 
Q 5691 2819 5691 2113 
L 5691 0 
L 5113 0 
L 5113 2094 
Q 5113 2597 4934 2840 
Q 4756 3084 4391 3084 
Q 3944 3084 3684 2787 
Q 3425 2491 3425 1978 
L 3425 0 
L 2847 0 
L 2847 2094 
Q 2847 2600 2669 2842 
Q 2491 3084 2119 3084 
Q 1678 3084 1418 2786 
Q 1159 2488 1159 1978 
L 1159 0 
L 581 0 
L 581 3500 
L 1159 3500 
L 1159 2956 
Q 1356 3278 1631 3431 
Q 1906 3584 2284 3584 
Q 2666 3584 2933 3390 
Q 3200 3197 3328 2828 
z
" transform="scale(0.015625)"/>
      <path id="DejaVuSans-70" d="M 1159 525 
L 1159 -1331 
L 581 -1331 
L 581 3500 
L 1159 3500 
L 1159 2969 
Q 1341 3281 1617 3432 
Q 1894 3584 2278 3584 
Q 2916 3584 3314 3078 
Q 3713 2572 3713 1747 
Q 3713 922 3314 415 
Q 2916 -91 2278 -91 
Q 1894 -91 1617 61 
Q 1341 213 1159 525 
z
M 3116 1747 
Q 3116 2381 2855 2742 
Q 2594 3103 2138 3103 
Q 1681 3103 1420 2742 
Q 1159 2381 1159 1747 
Q 1159 1113 1420 752 
Q 1681 391 2138 391 
Q 2594 391 2855 752 
Q 3116 1113 3116 1747 
z
" transform="scale(0.015625)"/>
      <path id="DejaVuSans-61" d="M 2194 1759 
Q 1497 1759 1228 1600 
Q 959 1441 959 1056 
Q 959 750 1161 570 
Q 1363 391 1709 391 
Q 2188 391 2477 730 
Q 2766 1069 2766 1631 
L 2766 1759 
L 2194 1759 
z
M 3341 1997 
L 3341 0 
L 2766 0 
L 2766 531 
Q 2569 213 2275 61 
Q 1981 -91 1556 -91 
Q 1019 -91 701 211 
Q 384 513 384 1019 
Q 384 1609 779 1909 
Q 1175 2209 1959 2209 
L 2766 2209 
L 2766 2266 
Q 2766 2663 2505 2880 
Q 2244 3097 1772 3097 
Q 1472 3097 1187 3025 
Q 903 2953 641 2809 
L 641 3341 
Q 956 3463 1253 3523 
Q 1550 3584 1831 3584 
Q 2591 3584 2966 3190 
Q 3341 2797 3341 1997 
z
" transform="scale(0.015625)"/>
     </defs>
     <use xlink:href="#DejaVuSans-49"/>
     <use xlink:href="#DejaVuSans-6e" x="29.492188"/>
     <use xlink:href="#DejaVuSans-74" x="92.871094"/>
     <use xlink:href="#DejaVuSans-65" x="132.080078"/>
     <use xlink:href="#DejaVuSans-6e" x="193.603516"/>
     <use xlink:href="#DejaVuSans-73" x="256.982422"/>
     <use xlink:href="#DejaVuSans-69" x="309.082031"/>
     <use xlink:href="#DejaVuSans-74" x="336.865234"/>
     <use xlink:href="#DejaVuSans-79" x="376.074219"/>
     <use xlink:href="#DejaVuSans-20" x="435.253906"/>
     <use xlink:href="#DejaVuSans-43" x="467.041016"/>
     <use xlink:href="#DejaVuSans-6f" x="536.865234"/>
     <use xlink:href="#DejaVuSans-6d" x="598.046875"/>
     <use xlink:href="#DejaVuSans-70" x="695.458984"/>
     <use xlink:href="#DejaVuSans-61" x="758.935547"/>
     <use xlink:href="#DejaVuSans-72" x="820.214844"/>
     <use xlink:href="#DejaVuSans-69" x="861.328125"/>
     <use xlink:href="#DejaVuSans-73" x="889.111328"/>
     <use xlink:href="#DejaVuSans-6f" x="941.210938"/>
     <use xlink:href="#DejaVuSans-6e" x="1002.392578"/>
    </g>
   </g>
   <g id="legend_1">
    <g id="patch_207">
     <path d="M 403.940156 162.988125 
L 612.545313 162.988125 
Q 616.345313 162.988125 616.345313 159.188125 
L 616.345313 49.534375 
Q 616.345313 45.734375 612.545313 45.734375 
L 403.940156 45.734375 
Q 400.140156 45.734375 400.140156 49.534375 
L 400.140156 159.188125 
Q 400.140156 162.988125 403.940156 162.988125 
z
" style="fill: #ffffff; opacity: 0.8; stroke: #cccccc; stroke-linejoin: miter"/>
    </g>
    <g id="line2d_19">
     <path d="M 407.740156 61.121406 
L 426.740156 61.121406 
L 445.740156 61.121406 
" style="fill: none; stroke: #8c564b; stroke-width: 4; stroke-linecap: square"/>
    </g>
    <g id="text_20">
     <!-- Top Region -->
     <g transform="translate(460.940156 67.771406)scale(0.19 -0.19)">
      <defs>
       <path id="DejaVuSans-54" d="M -19 4666 
L 3928 4666 
L 3928 4134 
L 2272 4134 
L 2272 0 
L 1638 0 
L 1638 4134 
L -19 4134 
L -19 4666 
z
" transform="scale(0.015625)"/>
       <path id="DejaVuSans-52" d="M 2841 2188 
Q 3044 2119 3236 1894 
Q 3428 1669 3622 1275 
L 4263 0 
L 3584 0 
L 2988 1197 
Q 2756 1666 2539 1819 
Q 2322 1972 1947 1972 
L 1259 1972 
L 1259 0 
L 628 0 
L 628 4666 
L 2053 4666 
Q 2853 4666 3247 4331 
Q 3641 3997 3641 3322 
Q 3641 2881 3436 2590 
Q 3231 2300 2841 2188 
z
M 1259 4147 
L 1259 2491 
L 2053 2491 
Q 2509 2491 2742 2702 
Q 2975 2913 2975 3322 
Q 2975 3731 2742 3939 
Q 2509 4147 2053 4147 
L 1259 4147 
z
" transform="scale(0.015625)"/>
       <path id="DejaVuSans-67" d="M 2906 1791 
Q 2906 2416 2648 2759 
Q 2391 3103 1925 3103 
Q 1463 3103 1205 2759 
Q 947 2416 947 1791 
Q 947 1169 1205 825 
Q 1463 481 1925 481 
Q 2391 481 2648 825 
Q 2906 1169 2906 1791 
z
M 3481 434 
Q 3481 -459 3084 -895 
Q 2688 -1331 1869 -1331 
Q 1566 -1331 1297 -1286 
Q 1028 -1241 775 -1147 
L 775 -588 
Q 1028 -725 1275 -790 
Q 1522 -856 1778 -856 
Q 2344 -856 2625 -561 
Q 2906 -266 2906 331 
L 2906 616 
Q 2728 306 2450 153 
Q 2172 0 1784 0 
Q 1141 0 747 490 
Q 353 981 353 1791 
Q 353 2603 747 3093 
Q 1141 3584 1784 3584 
Q 2172 3584 2450 3431 
Q 2728 3278 2906 2969 
L 2906 3500 
L 3481 3500 
L 3481 434 
z
" transform="scale(0.015625)"/>
      </defs>
      <use xlink:href="#DejaVuSans-54"/>
      <use xlink:href="#DejaVuSans-6f" x="44.083984"/>
      <use xlink:href="#DejaVuSans-70" x="105.265625"/>
      <use xlink:href="#DejaVuSans-20" x="168.742188"/>
      <use xlink:href="#DejaVuSans-52" x="200.529297"/>
      <use xlink:href="#DejaVuSans-65" x="265.511719"/>
      <use xlink:href="#DejaVuSans-67" x="327.035156"/>
      <use xlink:href="#DejaVuSans-69" x="390.511719"/>
      <use xlink:href="#DejaVuSans-6f" x="418.294922"/>
      <use xlink:href="#DejaVuSans-6e" x="479.476562"/>
     </g>
    </g>
    <g id="line2d_20">
     <path d="M 407.740156 89.009844 
L 426.740156 89.009844 
L 445.740156 89.009844 
" style="fill: none; stroke: #9467bd; stroke-width: 2.5; stroke-linecap: square"/>
    </g>
    <g id="text_21">
     <!-- Intensity Profile -->
     <g transform="translate(460.940156 95.659844)scale(0.19 -0.19)">
      <defs>
       <path id="DejaVuSans-50" d="M 1259 4147 
L 1259 2394 
L 2053 2394 
Q 2494 2394 2734 2622 
Q 2975 2850 2975 3272 
Q 2975 3691 2734 3919 
Q 2494 4147 2053 4147 
L 1259 4147 
z
M 628 4666 
L 2053 4666 
Q 2838 4666 3239 4311 
Q 3641 3956 3641 3272 
Q 3641 2581 3239 2228 
Q 2838 1875 2053 1875 
L 1259 1875 
L 1259 0 
L 628 0 
L 628 4666 
z
" transform="scale(0.015625)"/>
       <path id="DejaVuSans-66" d="M 2375 4863 
L 2375 4384 
L 1825 4384 
Q 1516 4384 1395 4259 
Q 1275 4134 1275 3809 
L 1275 3500 
L 2222 3500 
L 2222 3053 
L 1275 3053 
L 1275 0 
L 697 0 
L 697 3053 
L 147 3053 
L 147 3500 
L 697 3500 
L 697 3744 
Q 697 4328 969 4595 
Q 1241 4863 1831 4863 
L 2375 4863 
z
" transform="scale(0.015625)"/>
       <path id="DejaVuSans-6c" d="M 603 4863 
L 1178 4863 
L 1178 0 
L 603 0 
L 603 4863 
z
" transform="scale(0.015625)"/>
      </defs>
      <use xlink:href="#DejaVuSans-49"/>
      <use xlink:href="#DejaVuSans-6e" x="29.492188"/>
      <use xlink:href="#DejaVuSans-74" x="92.871094"/>
      <use xlink:href="#DejaVuSans-65" x="132.080078"/>
      <use xlink:href="#DejaVuSans-6e" x="193.603516"/>
      <use xlink:href="#DejaVuSans-73" x="256.982422"/>
      <use xlink:href="#DejaVuSans-69" x="309.082031"/>
      <use xlink:href="#DejaVuSans-74" x="336.865234"/>
      <use xlink:href="#DejaVuSans-79" x="376.074219"/>
      <use xlink:href="#DejaVuSans-20" x="435.253906"/>
      <use xlink:href="#DejaVuSans-50" x="467.041016"/>
      <use xlink:href="#DejaVuSans-72" x="525.59375"/>
      <use xlink:href="#DejaVuSans-6f" x="564.457031"/>
      <use xlink:href="#DejaVuSans-66" x="625.638672"/>
      <use xlink:href="#DejaVuSans-69" x="660.84375"/>
      <use xlink:href="#DejaVuSans-6c" x="688.626953"/>
      <use xlink:href="#DejaVuSans-65" x="716.410156"/>
     </g>
    </g>
    <g id="patch_208">
     <path d="M 407.740156 123.548281 
L 445.740156 123.548281 
L 445.740156 110.248281 
L 407.740156 110.248281 
z
" style="fill: #1f77b4; fill-opacity: 0.75; stroke: #000000; stroke-width: 0.507273; stroke-linejoin: miter"/>
    </g>
    <g id="text_22">
     <!-- Grap. + Hydro. -->
     <g transform="translate(460.940156 123.548281)scale(0.19 -0.19)">
      <defs>
       <path id="DejaVuSans-47" d="M 3809 666 
L 3809 1919 
L 2778 1919 
L 2778 2438 
L 4434 2438 
L 4434 434 
Q 4069 175 3628 42 
Q 3188 -91 2688 -91 
Q 1594 -91 976 548 
Q 359 1188 359 2328 
Q 359 3472 976 4111 
Q 1594 4750 2688 4750 
Q 3144 4750 3555 4637 
Q 3966 4525 4313 4306 
L 4313 3634 
Q 3963 3931 3569 4081 
Q 3175 4231 2741 4231 
Q 1884 4231 1454 3753 
Q 1025 3275 1025 2328 
Q 1025 1384 1454 906 
Q 1884 428 2741 428 
Q 3075 428 3337 486 
Q 3600 544 3809 666 
z
" transform="scale(0.015625)"/>
       <path id="DejaVuSans-2b" d="M 2944 4013 
L 2944 2272 
L 4684 2272 
L 4684 1741 
L 2944 1741 
L 2944 0 
L 2419 0 
L 2419 1741 
L 678 1741 
L 678 2272 
L 2419 2272 
L 2419 4013 
L 2944 4013 
z
" transform="scale(0.015625)"/>
       <path id="DejaVuSans-48" d="M 628 4666 
L 1259 4666 
L 1259 2753 
L 3553 2753 
L 3553 4666 
L 4184 4666 
L 4184 0 
L 3553 0 
L 3553 2222 
L 1259 2222 
L 1259 0 
L 628 0 
L 628 4666 
z
" transform="scale(0.015625)"/>
       <path id="DejaVuSans-64" d="M 2906 2969 
L 2906 4863 
L 3481 4863 
L 3481 0 
L 2906 0 
L 2906 525 
Q 2725 213 2448 61 
Q 2172 -91 1784 -91 
Q 1150 -91 751 415 
Q 353 922 353 1747 
Q 353 2572 751 3078 
Q 1150 3584 1784 3584 
Q 2172 3584 2448 3432 
Q 2725 3281 2906 2969 
z
M 947 1747 
Q 947 1113 1208 752 
Q 1469 391 1925 391 
Q 2381 391 2643 752 
Q 2906 1113 2906 1747 
Q 2906 2381 2643 2742 
Q 2381 3103 1925 3103 
Q 1469 3103 1208 2742 
Q 947 2381 947 1747 
z
" transform="scale(0.015625)"/>
      </defs>
      <use xlink:href="#DejaVuSans-47"/>
      <use xlink:href="#DejaVuSans-72" x="77.490234"/>
      <use xlink:href="#DejaVuSans-61" x="118.603516"/>
      <use xlink:href="#DejaVuSans-70" x="179.882812"/>
      <use xlink:href="#DejaVuSans-2e" x="243.359375"/>
      <use xlink:href="#DejaVuSans-20" x="275.146484"/>
      <use xlink:href="#DejaVuSans-2b" x="306.933594"/>
      <use xlink:href="#DejaVuSans-20" x="390.722656"/>
      <use xlink:href="#DejaVuSans-48" x="422.509766"/>
      <use xlink:href="#DejaVuSans-79" x="497.705078"/>
      <use xlink:href="#DejaVuSans-64" x="556.884766"/>
      <use xlink:href="#DejaVuSans-72" x="620.361328"/>
      <use xlink:href="#DejaVuSans-6f" x="659.224609"/>
      <use xlink:href="#DejaVuSans-2e" x="718.65625"/>
     </g>
    </g>
    <g id="patch_209">
     <path d="M 407.740156 151.436719 
L 445.740156 151.436719 
L 445.740156 138.136719 
L 407.740156 138.136719 
z
" style="fill: #ff7f0e; fill-opacity: 0.75; stroke: #000000; stroke-width: 0.424734; stroke-linejoin: miter"/>
    </g>
    <g id="text_23">
     <!-- Grap. -->
     <g transform="translate(460.940156 151.436719)scale(0.19 -0.19)">
      <use xlink:href="#DejaVuSans-47"/>
      <use xlink:href="#DejaVuSans-72" x="77.490234"/>
      <use xlink:href="#DejaVuSans-61" x="118.603516"/>
      <use xlink:href="#DejaVuSans-70" x="179.882812"/>
      <use xlink:href="#DejaVuSans-2e" x="243.359375"/>
     </g>
    </g>
   </g>
  </g>
 </g>
 <defs>
  <clipPath id="p398b2bfc86">
   <rect x="67.845313" y="36.234375" width="558" height="543.6"/>
  </clipPath>
 </defs>
</svg>
