<?xml version="1.0" encoding="utf-8" standalone="no"?>
<!DOCTYPE svg PUBLIC "-//W3C//DTD SVG 1.1//EN"
  "http://www.w3.org/Graphics/SVG/1.1/DTD/svg11.dtd">
<svg xmlns:xlink="http://www.w3.org/1999/xlink" width="421.285937pt" height="287.251328pt" viewBox="0 0 421.285937 287.251328" xmlns="http://www.w3.org/2000/svg" version="1.1">
 <metadata>
  <rdf:RDF xmlns:dc="http://purl.org/dc/elements/1.1/" xmlns:cc="http://creativecommons.org/ns#" xmlns:rdf="http://www.w3.org/1999/02/22-rdf-syntax-ns#">
   <cc:Work>
    <dc:type rdf:resource="http://purl.org/dc/dcmitype/StillImage"/>
    <dc:date>2024-06-10T12:07:05.213267</dc:date>
    <dc:format>image/svg+xml</dc:format>
    <dc:creator>
     <cc:Agent>
      <dc:title>Matplotlib v3.5.1, https://matplotlib.org/</dc:title>
     </cc:Agent>
    </dc:creator>
   </cc:Work>
  </rdf:RDF>
 </metadata>
 <defs>
  <style type="text/css">*{stroke-linejoin: round; stroke-linecap: butt}</style>
 </defs>
 <g id="figure_1">
  <g id="patch_1">
   <path d="M 0 287.251328 
L 421.285937 287.251328 
L 421.285937 0 
L 0 0 
z
" style="fill: #ffffff"/>
  </g>
  <g id="axes_1">
   <g id="patch_2">
    <path d="M 75.79375 230.338828 
L 410.59375 230.338828 
L 410.59375 12.898828 
L 75.79375 12.898828 
z
" style="fill: #ffffff"/>
   </g>
   <g id="PolyCollection_1">
    <path d="M 117.645732 225.6268 
L 117.641768 225.6268 
L 117.617391 222.590081 
L 117.482977 219.553362 
L 117.11071 216.516644 
L 116.538335 213.479925 
L 116.027881 210.443206 
L 115.717425 207.406488 
L 115.305452 204.369769 
L 114.357818 201.33305 
L 112.98689 198.296332 
L 111.655438 195.259613 
L 110.595466 192.222894 
L 109.650007 189.186176 
L 108.313022 186.149457 
L 106.55114 183.112738 
L 104.768641 180.07602 
L 103.13437 177.039301 
L 101.686666 174.002582 
L 100.252885 170.965864 
L 98.780612 167.929145 
L 97.489359 164.892427 
L 96.215044 161.855708 
L 94.97328 158.818989 
L 94.126246 155.782271 
L 93.528242 152.745552 
L 92.990007 149.708833 
L 92.601903 146.672115 
L 92.503772 143.635396 
L 92.574152 140.598677 
L 92.87006 137.561959 
L 93.308584 134.52524 
L 93.848009 131.488521 
L 94.522956 128.451803 
L 95.402118 125.415084 
L 96.431464 122.378365 
L 97.588356 119.341647 
L 98.811176 116.304928 
L 99.987907 113.268209 
L 101.100543 110.231491 
L 102.187831 107.194772 
L 103.316411 104.158053 
L 104.39171 101.121335 
L 105.566376 98.084616 
L 106.849599 95.047897 
L 107.961478 92.011179 
L 108.863772 88.97446 
L 109.829718 85.937741 
L 110.77439 82.901023 
L 111.495328 79.864304 
L 112.182699 76.827585 
L 112.898724 73.790867 
L 113.456483 70.754148 
L 113.964816 67.717429 
L 114.496028 64.680711 
L 114.942562 61.643992 
L 115.349792 58.607273 
L 115.700184 55.570555 
L 115.992085 52.533836 
L 116.281411 49.497117 
L 116.504266 46.460399 
L 116.66641 43.42368 
L 116.826883 40.386961 
L 116.98655 37.350243 
L 117.111748 34.313524 
L 117.197991 31.276805 
L 117.25912 28.240087 
L 117.333301 25.203368 
L 117.402432 22.166649 
L 117.440034 19.129931 
L 117.476248 16.093212 
L 117.506785 13.056493 
L 117.535995 10.019775 
L 117.56182 6.983056 
L 117.578568 3.946337 
L 117.594312 0.909619 
L 117.608594 -2.1271 
L 117.619652 -5.163819 
L 117.627122 -8.200537 
L 117.62939 -11.237256 
L 117.63145 -14.273975 
L 117.633583 -17.310693 
L 117.636099 -20.347412 
L 117.638901 -23.384131 
L 117.639117 -26.420849 
L 117.637819 -29.457568 
L 117.638646 -32.494287 
L 117.639402 -35.531005 
L 117.640596 -38.567724 
L 117.641733 -41.604443 
L 117.641579 -44.641161 
L 117.642123 -47.67788 
L 117.643354 -50.714598 
L 117.643722 -53.751317 
L 117.643749 -56.788036 
L 117.643749 -59.824754 
L 117.643709 -62.861473 
L 117.643369 -65.898192 
L 117.642774 -68.93491 
L 117.643056 -71.971629 
L 117.643613 -75.008348 
L 117.643887 -75.008348 
L 117.643887 -75.008348 
L 117.644444 -71.971629 
L 117.644726 -68.93491 
L 117.644131 -65.898192 
L 117.643791 -62.861473 
L 117.643751 -59.824754 
L 117.643751 -56.788036 
L 117.643778 -53.751317 
L 117.644146 -50.714598 
L 117.645377 -47.67788 
L 117.645921 -44.641161 
L 117.645767 -41.604443 
L 117.646904 -38.567724 
L 117.648098 -35.531005 
L 117.648854 -32.494287 
L 117.649681 -29.457568 
L 117.648383 -26.420849 
L 117.648599 -23.384131 
L 117.651401 -20.347412 
L 117.653917 -17.310693 
L 117.65605 -14.273975 
L 117.65811 -11.237256 
L 117.660378 -8.200537 
L 117.667848 -5.163819 
L 117.678906 -2.1271 
L 117.693188 0.909619 
L 117.708932 3.946337 
L 117.72568 6.983056 
L 117.751505 10.019775 
L 117.780715 13.056493 
L 117.811252 16.093212 
L 117.847466 19.129931 
L 117.885068 22.166649 
L 117.954199 25.203368 
L 118.02838 28.240087 
L 118.089509 31.276805 
L 118.175752 34.313524 
L 118.30095 37.350243 
L 118.460617 40.386961 
L 118.62109 43.42368 
L 118.783234 46.460399 
L 119.006089 49.497117 
L 119.295415 52.533836 
L 119.587316 55.570555 
L 119.937708 58.607273 
L 120.344938 61.643992 
L 120.791472 64.680711 
L 121.322684 67.717429 
L 121.831017 70.754148 
L 122.388776 73.790867 
L 123.104801 76.827585 
L 123.792172 79.864304 
L 124.51311 82.901023 
L 125.457782 85.937741 
L 126.423728 88.97446 
L 127.326022 92.011179 
L 128.437901 95.047897 
L 129.721124 98.084616 
L 130.89579 101.121335 
L 131.971089 104.158053 
L 133.099669 107.194772 
L 134.186957 110.231491 
L 135.299593 113.268209 
L 136.476324 116.304928 
L 137.699144 119.341647 
L 138.856036 122.378365 
L 139.885382 125.415084 
L 140.764544 128.451803 
L 141.439491 131.488521 
L 141.978916 134.52524 
L 142.41744 137.561959 
L 142.713348 140.598677 
L 142.783728 143.635396 
L 142.685597 146.672115 
L 142.297493 149.708833 
L 141.759258 152.745552 
L 141.161254 155.782271 
L 140.31422 158.818989 
L 139.072456 161.855708 
L 137.798141 164.892427 
L 136.506888 167.929145 
L 135.034615 170.965864 
L 133.600834 174.002582 
L 132.15313 177.039301 
L 130.518859 180.07602 
L 128.73636 183.112738 
L 126.974478 186.149457 
L 125.637493 189.186176 
L 124.692034 192.222894 
L 123.632062 195.259613 
L 122.30061 198.296332 
L 120.929682 201.33305 
L 119.982048 204.369769 
L 119.570075 207.406488 
L 119.259619 210.443206 
L 118.749165 213.479925 
L 118.17679 216.516644 
L 117.804523 219.553362 
L 117.670109 222.590081 
L 117.645732 225.6268 
z
" clip-path="url(#pb5cb73eb02)" style="fill: #3274a1; stroke: #3d3d3d; stroke-width: 1.5"/>
   </g>
   <g id="PolyCollection_2">
    <defs>
     <path id="m15aedbaae0" d="M 201.36233 -60.193034 
L 201.32517 -60.193034 
L 201.243528 -62.459329 
L 200.954118 -64.725623 
L 200.223178 -66.991918 
L 198.884245 -69.258212 
L 197.067554 -71.524506 
L 195.214895 -73.790801 
L 193.819343 -76.057095 
L 193.06402 -78.323389 
L 192.578197 -80.589684 
L 191.641981 -82.855978 
L 189.775169 -85.122273 
L 187.118859 -87.388567 
L 184.303399 -89.654861 
L 182.009294 -91.921156 
L 180.518311 -94.18745 
L 179.548694 -96.453745 
L 178.628835 -98.720039 
L 177.549998 -100.986333 
L 176.296364 -103.252628 
L 174.866643 -105.518922 
L 173.419133 -107.785217 
L 172.298736 -110.051511 
L 171.727193 -112.317805 
L 171.63769 -114.5841 
L 171.817713 -116.850394 
L 172.03982 -119.116688 
L 172.135396 -121.382983 
L 172.140533 -123.649277 
L 172.277442 -125.915572 
L 172.695423 -128.181866 
L 173.384868 -130.44816 
L 174.336574 -132.714455 
L 175.562792 -134.980749 
L 176.932796 -137.247044 
L 178.20615 -139.513338 
L 179.324747 -141.779632 
L 180.42695 -144.045927 
L 181.557688 -146.312221 
L 182.670831 -148.578516 
L 183.80979 -150.84481 
L 185.056489 -153.111104 
L 186.392351 -155.377399 
L 187.699175 -157.643693 
L 188.842194 -159.909988 
L 189.781934 -162.176282 
L 190.633436 -164.442576 
L 191.513156 -166.708871 
L 192.384131 -168.975165 
L 193.164491 -171.241459 
L 193.865876 -173.507754 
L 194.538656 -175.774048 
L 195.189161 -178.040343 
L 195.790197 -180.306637 
L 196.338049 -182.572931 
L 196.866049 -184.839226 
L 197.380543 -187.10552 
L 197.8373 -189.371815 
L 198.219089 -191.638109 
L 198.564934 -193.904403 
L 198.905914 -196.170698 
L 199.234039 -198.436992 
L 199.520077 -200.703287 
L 199.742429 -202.969581 
L 199.914785 -205.235875 
L 200.07729 -207.50217 
L 200.258078 -209.768464 
L 200.450025 -212.034758 
L 200.61904 -214.301053 
L 200.738789 -216.567347 
L 200.815623 -218.833642 
L 200.874494 -221.099936 
L 200.928335 -223.36623 
L 200.975535 -225.632525 
L 201.020182 -227.898819 
L 201.069718 -230.165114 
L 201.1204 -232.431408 
L 201.163183 -234.697702 
L 201.19515 -236.963997 
L 201.218768 -239.230291 
L 201.237584 -241.496586 
L 201.252588 -243.76288 
L 201.263107 -246.029174 
L 201.271595 -248.295469 
L 201.282093 -250.561763 
L 201.294527 -252.828058 
L 201.305692 -255.094352 
L 201.3146 -257.360646 
L 201.323033 -259.626941 
L 201.331328 -261.893235 
L 201.336655 -264.159529 
L 201.336856 -266.425824 
L 201.334021 -268.692118 
L 201.332544 -270.958413 
L 201.333847 -273.224707 
L 201.335688 -275.491001 
L 201.337074 -277.757296 
L 201.339066 -280.02359 
L 201.341438 -282.289885 
L 201.343004 -284.556179 
L 201.344496 -284.556179 
L 201.344496 -284.556179 
L 201.346062 -282.289885 
L 201.348434 -280.02359 
L 201.350426 -277.757296 
L 201.351812 -275.491001 
L 201.353653 -273.224707 
L 201.354956 -270.958413 
L 201.353479 -268.692118 
L 201.350644 -266.425824 
L 201.350845 -264.159529 
L 201.356172 -261.893235 
L 201.364467 -259.626941 
L 201.3729 -257.360646 
L 201.381808 -255.094352 
L 201.392973 -252.828058 
L 201.405407 -250.561763 
L 201.415905 -248.295469 
L 201.424393 -246.029174 
L 201.434912 -243.76288 
L 201.449916 -241.496586 
L 201.468732 -239.230291 
L 201.49235 -236.963997 
L 201.524317 -234.697702 
L 201.5671 -232.431408 
L 201.617782 -230.165114 
L 201.667318 -227.898819 
L 201.711965 -225.632525 
L 201.759165 -223.36623 
L 201.813006 -221.099936 
L 201.871877 -218.833642 
L 201.948711 -216.567347 
L 202.06846 -214.301053 
L 202.237475 -212.034758 
L 202.429422 -209.768464 
L 202.61021 -207.50217 
L 202.772715 -205.235875 
L 202.945071 -202.969581 
L 203.167423 -200.703287 
L 203.453461 -198.436992 
L 203.781586 -196.170698 
L 204.122566 -193.904403 
L 204.468411 -191.638109 
L 204.8502 -189.371815 
L 205.306957 -187.10552 
L 205.821451 -184.839226 
L 206.349451 -182.572931 
L 206.897303 -180.306637 
L 207.498339 -178.040343 
L 208.148844 -175.774048 
L 208.821624 -173.507754 
L 209.523009 -171.241459 
L 210.303369 -168.975165 
L 211.174344 -166.708871 
L 212.054064 -164.442576 
L 212.905566 -162.176282 
L 213.845306 -159.909988 
L 214.988325 -157.643693 
L 216.295149 -155.377399 
L 217.631011 -153.111104 
L 218.87771 -150.84481 
L 220.016669 -148.578516 
L 221.129812 -146.312221 
L 222.26055 -144.045927 
L 223.362753 -141.779632 
L 224.48135 -139.513338 
L 225.754704 -137.247044 
L 227.124708 -134.980749 
L 228.350926 -132.714455 
L 229.302632 -130.44816 
L 229.992077 -128.181866 
L 230.410058 -125.915572 
L 230.546967 -123.649277 
L 230.552104 -121.382983 
L 230.64768 -119.116688 
L 230.869787 -116.850394 
L 231.04981 -114.5841 
L 230.960307 -112.317805 
L 230.388764 -110.051511 
L 229.268367 -107.785217 
L 227.820857 -105.518922 
L 226.391136 -103.252628 
L 225.137502 -100.986333 
L 224.058665 -98.720039 
L 223.138806 -96.453745 
L 222.169189 -94.18745 
L 220.678206 -91.921156 
L 218.384101 -89.654861 
L 215.568641 -87.388567 
L 212.912331 -85.122273 
L 211.045519 -82.855978 
L 210.109303 -80.589684 
L 209.62348 -78.323389 
L 208.868157 -76.057095 
L 207.472605 -73.790801 
L 205.619946 -71.524506 
L 203.803255 -69.258212 
L 202.464322 -66.991918 
L 201.733382 -64.725623 
L 201.443972 -62.459329 
L 201.36233 -60.193034 
z
" style="stroke: #3d3d3d; stroke-width: 1.5"/>
    </defs>
    <g clip-path="url(#pb5cb73eb02)">
     <use xlink:href="#m15aedbaae0" x="0" y="287.251328" style="fill: #e1812c; stroke: #3d3d3d; stroke-width: 1.5"/>
    </g>
   </g>
   <g id="PolyCollection_3">
    <path d="M 285.079321 224.608938 
L 285.008179 224.608938 
L 284.291546 221.570861 
L 280.523643 218.532785 
L 273.934751 215.494709 
L 270.161375 212.456633 
L 270.81666 209.418557 
L 271.566674 206.380481 
L 268.750592 203.342405 
L 262.582696 200.304329 
L 257.071013 197.266253 
L 255.27101 194.228176 
L 255.766975 191.1901 
L 255.804733 188.152024 
L 254.478922 185.113948 
L 252.589993 182.075872 
L 251.56375 179.037796 
L 251.936662 175.99972 
L 253.426474 172.961644 
L 254.668159 169.923568 
L 255.927158 166.885492 
L 257.39968 163.847415 
L 258.766652 160.809339 
L 260.406921 157.771263 
L 262.552407 154.733187 
L 264.7089 151.695111 
L 266.666324 148.657035 
L 268.330001 145.618959 
L 269.971111 142.580883 
L 271.68511 139.542807 
L 273.342119 136.50473 
L 274.703961 133.466654 
L 275.990934 130.428578 
L 277.16498 127.390502 
L 278.252877 124.352426 
L 279.170845 121.31435 
L 280.012246 118.276274 
L 280.824718 115.238198 
L 281.476037 112.200122 
L 281.949253 109.162046 
L 282.424794 106.123969 
L 282.870868 103.085893 
L 283.19431 100.047817 
L 283.457713 97.009741 
L 283.728529 93.971665 
L 283.950022 90.933589 
L 284.134805 87.895513 
L 284.286604 84.857437 
L 284.420422 81.819361 
L 284.528057 78.781285 
L 284.594876 75.743208 
L 284.649656 72.705132 
L 284.712608 69.667056 
L 284.769709 66.62898 
L 284.817596 63.590904 
L 284.859947 60.552828 
L 284.875737 57.514752 
L 284.892031 54.476676 
L 284.913616 51.4386 
L 284.940564 48.400523 
L 284.967054 45.362447 
L 284.981167 42.324371 
L 284.987954 39.286295 
L 284.997356 36.248219 
L 284.999324 33.210143 
L 285.003157 30.172067 
L 285.015698 27.133991 
L 285.013337 24.095915 
L 285.016454 21.057839 
L 285.021873 18.019762 
L 285.026037 14.981686 
L 285.032316 11.94361 
L 285.034485 8.905534 
L 285.030449 5.867458 
L 285.028636 2.829382 
L 285.036256 -0.208694 
L 285.040139 -3.24677 
L 285.038009 -6.284846 
L 285.037744 -9.322923 
L 285.037702 -12.360999 
L 285.038506 -15.399075 
L 285.040065 -18.437151 
L 285.041158 -21.475227 
L 285.041421 -24.513303 
L 285.042695 -27.551379 
L 285.042974 -30.589455 
L 285.042796 -33.627531 
L 285.043593 -36.665607 
L 285.043747 -39.703684 
L 285.04375 -42.74176 
L 285.04375 -45.779836 
L 285.04375 -48.817912 
L 285.04375 -51.855988 
L 285.04375 -54.894064 
L 285.04375 -57.93214 
L 285.04375 -60.970216 
L 285.043749 -64.008292 
L 285.043685 -67.046368 
L 285.043038 -70.084445 
L 285.042815 -73.122521 
L 285.043603 -76.160597 
L 285.043897 -76.160597 
L 285.043897 -76.160597 
L 285.044685 -73.122521 
L 285.044462 -70.084445 
L 285.043815 -67.046368 
L 285.043751 -64.008292 
L 285.04375 -60.970216 
L 285.04375 -57.93214 
L 285.04375 -54.894064 
L 285.04375 -51.855988 
L 285.04375 -48.817912 
L 285.04375 -45.779836 
L 285.04375 -42.74176 
L 285.043753 -39.703684 
L 285.043907 -36.665607 
L 285.044704 -33.627531 
L 285.044526 -30.589455 
L 285.044805 -27.551379 
L 285.046079 -24.513303 
L 285.046342 -21.475227 
L 285.047435 -18.437151 
L 285.048994 -15.399075 
L 285.049798 -12.360999 
L 285.049756 -9.322923 
L 285.049491 -6.284846 
L 285.047361 -3.24677 
L 285.051244 -0.208694 
L 285.058864 2.829382 
L 285.057051 5.867458 
L 285.053015 8.905534 
L 285.055184 11.94361 
L 285.061463 14.981686 
L 285.065627 18.019762 
L 285.071046 21.057839 
L 285.074163 24.095915 
L 285.071802 27.133991 
L 285.084343 30.172067 
L 285.088176 33.210143 
L 285.090144 36.248219 
L 285.099546 39.286295 
L 285.106333 42.324371 
L 285.120446 45.362447 
L 285.146936 48.400523 
L 285.173884 51.4386 
L 285.195469 54.476676 
L 285.211763 57.514752 
L 285.227553 60.552828 
L 285.269904 63.590904 
L 285.317791 66.62898 
L 285.374892 69.667056 
L 285.437844 72.705132 
L 285.492624 75.743208 
L 285.559443 78.781285 
L 285.667078 81.819361 
L 285.800896 84.857437 
L 285.952695 87.895513 
L 286.137478 90.933589 
L 286.358971 93.971665 
L 286.629787 97.009741 
L 286.89319 100.047817 
L 287.216632 103.085893 
L 287.662706 106.123969 
L 288.138247 109.162046 
L 288.611463 112.200122 
L 289.262782 115.238198 
L 290.075254 118.276274 
L 290.916655 121.31435 
L 291.834623 124.352426 
L 292.92252 127.390502 
L 294.096566 130.428578 
L 295.383539 133.466654 
L 296.745381 136.50473 
L 298.40239 139.542807 
L 300.116389 142.580883 
L 301.757499 145.618959 
L 303.421176 148.657035 
L 305.3786 151.695111 
L 307.535093 154.733187 
L 309.680579 157.771263 
L 311.320848 160.809339 
L 312.68782 163.847415 
L 314.160342 166.885492 
L 315.419341 169.923568 
L 316.661026 172.961644 
L 318.150838 175.99972 
L 318.52375 179.037796 
L 317.497507 182.075872 
L 315.608578 185.113948 
L 314.282767 188.152024 
L 314.320525 191.1901 
L 314.81649 194.228176 
L 313.016487 197.266253 
L 307.504804 200.304329 
L 301.336908 203.342405 
L 298.520826 206.380481 
L 299.27084 209.418557 
L 299.926125 212.456633 
L 296.152749 215.494709 
L 289.563857 218.532785 
L 285.795954 221.570861 
L 285.079321 224.608938 
z
" clip-path="url(#pb5cb73eb02)" style="fill: #3a923a; stroke: #3d3d3d; stroke-width: 1.5"/>
   </g>
   <g id="PolyCollection_4">
    <path d="M 368.797157 228.261292 
L 368.690343 228.261292 
L 368.299405 224.766808 
L 366.712116 221.272325 
L 363.294829 217.777841 
L 359.409203 214.283358 
L 357.224603 210.788874 
L 356.302668 207.294391 
L 354.217499 203.799907 
L 350.225782 200.305423 
L 346.143912 196.81094 
L 343.823663 193.316456 
L 342.932759 189.821973 
L 341.980336 186.327489 
L 340.567534 182.833006 
L 339.454461 179.338522 
L 339.417001 175.844039 
L 340.376497 172.349555 
L 341.532647 168.855072 
L 342.519555 165.360588 
L 343.638651 161.866105 
L 345.124817 158.371621 
L 346.780247 154.877137 
L 348.427321 151.382654 
L 350.117787 147.88817 
L 351.807852 144.393687 
L 353.355508 140.899203 
L 354.754137 137.40472 
L 356.095653 133.910236 
L 357.452675 130.415753 
L 358.714912 126.921269 
L 359.803107 123.426786 
L 360.817828 119.932302 
L 361.754323 116.437819 
L 362.524982 112.943335 
L 363.105792 109.448851 
L 363.608827 105.954368 
L 364.225874 102.459884 
L 364.872547 98.965401 
L 365.376803 95.470917 
L 365.752043 91.976434 
L 366.02726 88.48195 
L 366.263771 84.987467 
L 366.529351 81.492983 
L 366.779094 77.9985 
L 367.000188 74.504016 
L 367.246524 71.009533 
L 367.471537 67.515049 
L 367.618331 64.020566 
L 367.727266 60.526082 
L 367.840676 57.031598 
L 367.958602 53.537115 
L 368.085025 50.042631 
L 368.199255 46.548148 
L 368.270231 43.053664 
L 368.315276 39.559181 
L 368.362904 36.064697 
L 368.406739 32.570214 
L 368.446919 29.07573 
L 368.49054 25.581247 
L 368.527618 22.086763 
L 368.534148 18.59228 
L 368.517304 15.097796 
L 368.519802 11.603312 
L 368.54941 8.108829 
L 368.589362 4.614345 
L 368.62197 1.119862 
L 368.646488 -2.374622 
L 368.669187 -5.869105 
L 368.680371 -9.363589 
L 368.678978 -12.858072 
L 368.680205 -16.352556 
L 368.685782 -19.847039 
L 368.685811 -23.341523 
L 368.684219 -26.836006 
L 368.695904 -30.33049 
L 368.71855 -33.824973 
L 368.735858 -37.319457 
L 368.741936 -40.813941 
L 368.740617 -44.308424 
L 368.734894 -47.802908 
L 368.731356 -51.297391 
L 368.734921 -54.791875 
L 368.738374 -58.286358 
L 368.736262 -61.780842 
L 368.731424 -65.275325 
L 368.727933 -68.769809 
L 368.730336 -72.264292 
L 368.737321 -75.758776 
L 368.742147 -79.253259 
L 368.743497 -82.747743 
L 368.743229 -86.242227 
L 368.741601 -89.73671 
L 368.739642 -93.231194 
L 368.74018 -96.725677 
L 368.742146 -100.220161 
L 368.742239 -103.714644 
L 368.740317 -107.209128 
L 368.739577 -110.703611 
L 368.741441 -114.198095 
L 368.743172 -117.692578 
L 368.744328 -117.692578 
L 368.744328 -117.692578 
L 368.746059 -114.198095 
L 368.747923 -110.703611 
L 368.747183 -107.209128 
L 368.745261 -103.714644 
L 368.745354 -100.220161 
L 368.74732 -96.725677 
L 368.747858 -93.231194 
L 368.745899 -89.73671 
L 368.744271 -86.242227 
L 368.744003 -82.747743 
L 368.745353 -79.253259 
L 368.750179 -75.758776 
L 368.757164 -72.264292 
L 368.759567 -68.769809 
L 368.756076 -65.275325 
L 368.751238 -61.780842 
L 368.749126 -58.286358 
L 368.752579 -54.791875 
L 368.756144 -51.297391 
L 368.752606 -47.802908 
L 368.746883 -44.308424 
L 368.745564 -40.813941 
L 368.751642 -37.319457 
L 368.76895 -33.824973 
L 368.791596 -30.33049 
L 368.803281 -26.836006 
L 368.801689 -23.341523 
L 368.801718 -19.847039 
L 368.807295 -16.352556 
L 368.808522 -12.858072 
L 368.807129 -9.363589 
L 368.818313 -5.869105 
L 368.841012 -2.374622 
L 368.86553 1.119862 
L 368.898138 4.614345 
L 368.93809 8.108829 
L 368.967698 11.603312 
L 368.970196 15.097796 
L 368.953352 18.59228 
L 368.959882 22.086763 
L 368.99696 25.581247 
L 369.040581 29.07573 
L 369.080761 32.570214 
L 369.124596 36.064697 
L 369.172224 39.559181 
L 369.217269 43.053664 
L 369.288245 46.548148 
L 369.402475 50.042631 
L 369.528898 53.537115 
L 369.646824 57.031598 
L 369.760234 60.526082 
L 369.869169 64.020566 
L 370.015963 67.515049 
L 370.240976 71.009533 
L 370.487312 74.504016 
L 370.708406 77.9985 
L 370.958149 81.492983 
L 371.223729 84.987467 
L 371.46024 88.48195 
L 371.735457 91.976434 
L 372.110697 95.470917 
L 372.614953 98.965401 
L 373.261626 102.459884 
L 373.878673 105.954368 
L 374.381708 109.448851 
L 374.962518 112.943335 
L 375.733177 116.437819 
L 376.669672 119.932302 
L 377.684393 123.426786 
L 378.772588 126.921269 
L 380.034825 130.415753 
L 381.391847 133.910236 
L 382.733363 137.40472 
L 384.131992 140.899203 
L 385.679648 144.393687 
L 387.369713 147.88817 
L 389.060179 151.382654 
L 390.707253 154.877137 
L 392.362683 158.371621 
L 393.848849 161.866105 
L 394.967945 165.360588 
L 395.954853 168.855072 
L 397.111003 172.349555 
L 398.070499 175.844039 
L 398.033039 179.338522 
L 396.919966 182.833006 
L 395.507164 186.327489 
L 394.554741 189.821973 
L 393.663837 193.316456 
L 391.343588 196.81094 
L 387.261718 200.305423 
L 383.270001 203.799907 
L 381.184832 207.294391 
L 380.262897 210.788874 
L 378.078297 214.283358 
L 374.192671 217.777841 
L 370.775384 221.272325 
L 369.188095 224.766808 
L 368.797157 228.261292 
z
" clip-path="url(#pb5cb73eb02)" style="fill: #c03d3e; stroke: #3d3d3d; stroke-width: 1.5"/>
   </g>
   <g id="matplotlib.axis_1">
    <g id="xtick_1">
     <g id="line2d_1">
      <defs>
       <path id="mc45c97447d" d="M 0 0 
L 0 3.5 
" style="stroke: #000000; stroke-width: 0.8"/>
      </defs>
      <g>
       <use xlink:href="#mc45c97447d" x="117.64375" y="230.338828" style="stroke: #000000; stroke-width: 0.8"/>
      </g>
     </g>
     <g id="text_1">
      <!-- I1: open -->
      <g transform="translate(87.030859 248.736484)scale(0.15 -0.15)">
       <defs>
        <path id="DejaVuSans-49" d="M 628 4666 
L 1259 4666 
L 1259 0 
L 628 0 
L 628 4666 
z
" transform="scale(0.015625)"/>
        <path id="DejaVuSans-31" d="M 794 531 
L 1825 531 
L 1825 4091 
L 703 3866 
L 703 4441 
L 1819 4666 
L 2450 4666 
L 2450 531 
L 3481 531 
L 3481 0 
L 794 0 
L 794 531 
z
" transform="scale(0.015625)"/>
        <path id="DejaVuSans-3a" d="M 750 794 
L 1409 794 
L 1409 0 
L 750 0 
L 750 794 
z
M 750 3309 
L 1409 3309 
L 1409 2516 
L 750 2516 
L 750 3309 
z
" transform="scale(0.015625)"/>
        <path id="DejaVuSans-20" transform="scale(0.015625)"/>
        <path id="DejaVuSans-6f" d="M 1959 3097 
Q 1497 3097 1228 2736 
Q 959 2375 959 1747 
Q 959 1119 1226 758 
Q 1494 397 1959 397 
Q 2419 397 2687 759 
Q 2956 1122 2956 1747 
Q 2956 2369 2687 2733 
Q 2419 3097 1959 3097 
z
M 1959 3584 
Q 2709 3584 3137 3096 
Q 3566 2609 3566 1747 
Q 3566 888 3137 398 
Q 2709 -91 1959 -91 
Q 1206 -91 779 398 
Q 353 888 353 1747 
Q 353 2609 779 3096 
Q 1206 3584 1959 3584 
z
" transform="scale(0.015625)"/>
        <path id="DejaVuSans-70" d="M 1159 525 
L 1159 -1331 
L 581 -1331 
L 581 3500 
L 1159 3500 
L 1159 2969 
Q 1341 3281 1617 3432 
Q 1894 3584 2278 3584 
Q 2916 3584 3314 3078 
Q 3713 2572 3713 1747 
Q 3713 922 3314 415 
Q 2916 -91 2278 -91 
Q 1894 -91 1617 61 
Q 1341 213 1159 525 
z
M 3116 1747 
Q 3116 2381 2855 2742 
Q 2594 3103 2138 3103 
Q 1681 3103 1420 2742 
Q 1159 2381 1159 1747 
Q 1159 1113 1420 752 
Q 1681 391 2138 391 
Q 2594 391 2855 752 
Q 3116 1113 3116 1747 
z
" transform="scale(0.015625)"/>
        <path id="DejaVuSans-65" d="M 3597 1894 
L 3597 1613 
L 953 1613 
Q 991 1019 1311 708 
Q 1631 397 2203 397 
Q 2534 397 2845 478 
Q 3156 559 3463 722 
L 3463 178 
Q 3153 47 2828 -22 
Q 2503 -91 2169 -91 
Q 1331 -91 842 396 
Q 353 884 353 1716 
Q 353 2575 817 3079 
Q 1281 3584 2069 3584 
Q 2775 3584 3186 3129 
Q 3597 2675 3597 1894 
z
M 3022 2063 
Q 3016 2534 2758 2815 
Q 2500 3097 2075 3097 
Q 1594 3097 1305 2825 
Q 1016 2553 972 2059 
L 3022 2063 
z
" transform="scale(0.015625)"/>
        <path id="DejaVuSans-6e" d="M 3513 2113 
L 3513 0 
L 2938 0 
L 2938 2094 
Q 2938 2591 2744 2837 
Q 2550 3084 2163 3084 
Q 1697 3084 1428 2787 
Q 1159 2491 1159 1978 
L 1159 0 
L 581 0 
L 581 3500 
L 1159 3500 
L 1159 2956 
Q 1366 3272 1645 3428 
Q 1925 3584 2291 3584 
Q 2894 3584 3203 3211 
Q 3513 2838 3513 2113 
z
" transform="scale(0.015625)"/>
       </defs>
       <use xlink:href="#DejaVuSans-49"/>
       <use xlink:href="#DejaVuSans-31" x="29.492188"/>
       <use xlink:href="#DejaVuSans-3a" x="93.115234"/>
       <use xlink:href="#DejaVuSans-20" x="126.806641"/>
       <use xlink:href="#DejaVuSans-6f" x="158.59375"/>
       <use xlink:href="#DejaVuSans-70" x="219.775391"/>
       <use xlink:href="#DejaVuSans-65" x="283.251953"/>
       <use xlink:href="#DejaVuSans-6e" x="344.775391"/>
      </g>
     </g>
    </g>
    <g id="xtick_2">
     <g id="line2d_2">
      <g>
       <use xlink:href="#mc45c97447d" x="201.34375" y="230.338828" style="stroke: #000000; stroke-width: 0.8"/>
      </g>
     </g>
     <g id="text_2">
      <!-- I1: enclosed -->
      <g transform="translate(156.001563 248.736484)scale(0.15 -0.15)">
       <defs>
        <path id="DejaVuSans-63" d="M 3122 3366 
L 3122 2828 
Q 2878 2963 2633 3030 
Q 2388 3097 2138 3097 
Q 1578 3097 1268 2742 
Q 959 2388 959 1747 
Q 959 1106 1268 751 
Q 1578 397 2138 397 
Q 2388 397 2633 464 
Q 2878 531 3122 666 
L 3122 134 
Q 2881 22 2623 -34 
Q 2366 -91 2075 -91 
Q 1284 -91 818 406 
Q 353 903 353 1747 
Q 353 2603 823 3093 
Q 1294 3584 2113 3584 
Q 2378 3584 2631 3529 
Q 2884 3475 3122 3366 
z
" transform="scale(0.015625)"/>
        <path id="DejaVuSans-6c" d="M 603 4863 
L 1178 4863 
L 1178 0 
L 603 0 
L 603 4863 
z
" transform="scale(0.015625)"/>
        <path id="DejaVuSans-73" d="M 2834 3397 
L 2834 2853 
Q 2591 2978 2328 3040 
Q 2066 3103 1784 3103 
Q 1356 3103 1142 2972 
Q 928 2841 928 2578 
Q 928 2378 1081 2264 
Q 1234 2150 1697 2047 
L 1894 2003 
Q 2506 1872 2764 1633 
Q 3022 1394 3022 966 
Q 3022 478 2636 193 
Q 2250 -91 1575 -91 
Q 1294 -91 989 -36 
Q 684 19 347 128 
L 347 722 
Q 666 556 975 473 
Q 1284 391 1588 391 
Q 1994 391 2212 530 
Q 2431 669 2431 922 
Q 2431 1156 2273 1281 
Q 2116 1406 1581 1522 
L 1381 1569 
Q 847 1681 609 1914 
Q 372 2147 372 2553 
Q 372 3047 722 3315 
Q 1072 3584 1716 3584 
Q 2034 3584 2315 3537 
Q 2597 3491 2834 3397 
z
" transform="scale(0.015625)"/>
        <path id="DejaVuSans-64" d="M 2906 2969 
L 2906 4863 
L 3481 4863 
L 3481 0 
L 2906 0 
L 2906 525 
Q 2725 213 2448 61 
Q 2172 -91 1784 -91 
Q 1150 -91 751 415 
Q 353 922 353 1747 
Q 353 2572 751 3078 
Q 1150 3584 1784 3584 
Q 2172 3584 2448 3432 
Q 2725 3281 2906 2969 
z
M 947 1747 
Q 947 1113 1208 752 
Q 1469 391 1925 391 
Q 2381 391 2643 752 
Q 2906 1113 2906 1747 
Q 2906 2381 2643 2742 
Q 2381 3103 1925 3103 
Q 1469 3103 1208 2742 
Q 947 2381 947 1747 
z
" transform="scale(0.015625)"/>
       </defs>
       <use xlink:href="#DejaVuSans-49"/>
       <use xlink:href="#DejaVuSans-31" x="29.492188"/>
       <use xlink:href="#DejaVuSans-3a" x="93.115234"/>
       <use xlink:href="#DejaVuSans-20" x="126.806641"/>
       <use xlink:href="#DejaVuSans-65" x="158.59375"/>
       <use xlink:href="#DejaVuSans-6e" x="220.117188"/>
       <use xlink:href="#DejaVuSans-63" x="283.496094"/>
       <use xlink:href="#DejaVuSans-6c" x="338.476562"/>
       <use xlink:href="#DejaVuSans-6f" x="366.259766"/>
       <use xlink:href="#DejaVuSans-73" x="427.441406"/>
       <use xlink:href="#DejaVuSans-65" x="479.541016"/>
       <use xlink:href="#DejaVuSans-64" x="541.064453"/>
      </g>
     </g>
    </g>
    <g id="xtick_3">
     <g id="line2d_3">
      <g>
       <use xlink:href="#mc45c97447d" x="285.04375" y="230.338828" style="stroke: #000000; stroke-width: 0.8"/>
      </g>
     </g>
     <g id="text_3">
      <!-- I2: open -->
      <g transform="translate(254.430859 248.736484)scale(0.15 -0.15)">
       <defs>
        <path id="DejaVuSans-32" d="M 1228 531 
L 3431 531 
L 3431 0 
L 469 0 
L 469 531 
Q 828 903 1448 1529 
Q 2069 2156 2228 2338 
Q 2531 2678 2651 2914 
Q 2772 3150 2772 3378 
Q 2772 3750 2511 3984 
Q 2250 4219 1831 4219 
Q 1534 4219 1204 4116 
Q 875 4013 500 3803 
L 500 4441 
Q 881 4594 1212 4672 
Q 1544 4750 1819 4750 
Q 2544 4750 2975 4387 
Q 3406 4025 3406 3419 
Q 3406 3131 3298 2873 
Q 3191 2616 2906 2266 
Q 2828 2175 2409 1742 
Q 1991 1309 1228 531 
z
" transform="scale(0.015625)"/>
       </defs>
       <use xlink:href="#DejaVuSans-49"/>
       <use xlink:href="#DejaVuSans-32" x="29.492188"/>
       <use xlink:href="#DejaVuSans-3a" x="93.115234"/>
       <use xlink:href="#DejaVuSans-20" x="126.806641"/>
       <use xlink:href="#DejaVuSans-6f" x="158.59375"/>
       <use xlink:href="#DejaVuSans-70" x="219.775391"/>
       <use xlink:href="#DejaVuSans-65" x="283.251953"/>
       <use xlink:href="#DejaVuSans-6e" x="344.775391"/>
      </g>
     </g>
    </g>
    <g id="xtick_4">
     <g id="line2d_4">
      <g>
       <use xlink:href="#mc45c97447d" x="368.74375" y="230.338828" style="stroke: #000000; stroke-width: 0.8"/>
      </g>
     </g>
     <g id="text_4">
      <!-- I2: enclosed -->
      <g transform="translate(323.401563 248.736484)scale(0.15 -0.15)">
       <use xlink:href="#DejaVuSans-49"/>
       <use xlink:href="#DejaVuSans-32" x="29.492188"/>
       <use xlink:href="#DejaVuSans-3a" x="93.115234"/>
       <use xlink:href="#DejaVuSans-20" x="126.806641"/>
       <use xlink:href="#DejaVuSans-65" x="158.59375"/>
       <use xlink:href="#DejaVuSans-6e" x="220.117188"/>
       <use xlink:href="#DejaVuSans-63" x="283.496094"/>
       <use xlink:href="#DejaVuSans-6c" x="338.476562"/>
       <use xlink:href="#DejaVuSans-6f" x="366.259766"/>
       <use xlink:href="#DejaVuSans-73" x="427.441406"/>
       <use xlink:href="#DejaVuSans-65" x="479.541016"/>
       <use xlink:href="#DejaVuSans-64" x="541.064453"/>
      </g>
     </g>
    </g>
    <g id="text_5">
     <!-- Image Region -->
     <g transform="translate(157.277734 274.852109)scale(0.25 -0.25)">
      <defs>
       <path id="DejaVuSans-6d" d="M 3328 2828 
Q 3544 3216 3844 3400 
Q 4144 3584 4550 3584 
Q 5097 3584 5394 3201 
Q 5691 2819 5691 2113 
L 5691 0 
L 5113 0 
L 5113 2094 
Q 5113 2597 4934 2840 
Q 4756 3084 4391 3084 
Q 3944 3084 3684 2787 
Q 3425 2491 3425 1978 
L 3425 0 
L 2847 0 
L 2847 2094 
Q 2847 2600 2669 2842 
Q 2491 3084 2119 3084 
Q 1678 3084 1418 2786 
Q 1159 2488 1159 1978 
L 1159 0 
L 581 0 
L 581 3500 
L 1159 3500 
L 1159 2956 
Q 1356 3278 1631 3431 
Q 1906 3584 2284 3584 
Q 2666 3584 2933 3390 
Q 3200 3197 3328 2828 
z
" transform="scale(0.015625)"/>
       <path id="DejaVuSans-61" d="M 2194 1759 
Q 1497 1759 1228 1600 
Q 959 1441 959 1056 
Q 959 750 1161 570 
Q 1363 391 1709 391 
Q 2188 391 2477 730 
Q 2766 1069 2766 1631 
L 2766 1759 
L 2194 1759 
z
M 3341 1997 
L 3341 0 
L 2766 0 
L 2766 531 
Q 2569 213 2275 61 
Q 1981 -91 1556 -91 
Q 1019 -91 701 211 
Q 384 513 384 1019 
Q 384 1609 779 1909 
Q 1175 2209 1959 2209 
L 2766 2209 
L 2766 2266 
Q 2766 2663 2505 2880 
Q 2244 3097 1772 3097 
Q 1472 3097 1187 3025 
Q 903 2953 641 2809 
L 641 3341 
Q 956 3463 1253 3523 
Q 1550 3584 1831 3584 
Q 2591 3584 2966 3190 
Q 3341 2797 3341 1997 
z
" transform="scale(0.015625)"/>
       <path id="DejaVuSans-67" d="M 2906 1791 
Q 2906 2416 2648 2759 
Q 2391 3103 1925 3103 
Q 1463 3103 1205 2759 
Q 947 2416 947 1791 
Q 947 1169 1205 825 
Q 1463 481 1925 481 
Q 2391 481 2648 825 
Q 2906 1169 2906 1791 
z
M 3481 434 
Q 3481 -459 3084 -895 
Q 2688 -1331 1869 -1331 
Q 1566 -1331 1297 -1286 
Q 1028 -1241 775 -1147 
L 775 -588 
Q 1028 -725 1275 -790 
Q 1522 -856 1778 -856 
Q 2344 -856 2625 -561 
Q 2906 -266 2906 331 
L 2906 616 
Q 2728 306 2450 153 
Q 2172 0 1784 0 
Q 1141 0 747 490 
Q 353 981 353 1791 
Q 353 2603 747 3093 
Q 1141 3584 1784 3584 
Q 2172 3584 2450 3431 
Q 2728 3278 2906 2969 
L 2906 3500 
L 3481 3500 
L 3481 434 
z
" transform="scale(0.015625)"/>
       <path id="DejaVuSans-52" d="M 2841 2188 
Q 3044 2119 3236 1894 
Q 3428 1669 3622 1275 
L 4263 0 
L 3584 0 
L 2988 1197 
Q 2756 1666 2539 1819 
Q 2322 1972 1947 1972 
L 1259 1972 
L 1259 0 
L 628 0 
L 628 4666 
L 2053 4666 
Q 2853 4666 3247 4331 
Q 3641 3997 3641 3322 
Q 3641 2881 3436 2590 
Q 3231 2300 2841 2188 
z
M 1259 4147 
L 1259 2491 
L 2053 2491 
Q 2509 2491 2742 2702 
Q 2975 2913 2975 3322 
Q 2975 3731 2742 3939 
Q 2509 4147 2053 4147 
L 1259 4147 
z
" transform="scale(0.015625)"/>
       <path id="DejaVuSans-69" d="M 603 3500 
L 1178 3500 
L 1178 0 
L 603 0 
L 603 3500 
z
M 603 4863 
L 1178 4863 
L 1178 4134 
L 603 4134 
L 603 4863 
z
" transform="scale(0.015625)"/>
      </defs>
      <use xlink:href="#DejaVuSans-49"/>
      <use xlink:href="#DejaVuSans-6d" x="29.492188"/>
      <use xlink:href="#DejaVuSans-61" x="126.904297"/>
      <use xlink:href="#DejaVuSans-67" x="188.183594"/>
      <use xlink:href="#DejaVuSans-65" x="251.660156"/>
      <use xlink:href="#DejaVuSans-20" x="313.183594"/>
      <use xlink:href="#DejaVuSans-52" x="344.970703"/>
      <use xlink:href="#DejaVuSans-65" x="409.953125"/>
      <use xlink:href="#DejaVuSans-67" x="471.476562"/>
      <use xlink:href="#DejaVuSans-69" x="534.953125"/>
      <use xlink:href="#DejaVuSans-6f" x="562.736328"/>
      <use xlink:href="#DejaVuSans-6e" x="623.917969"/>
     </g>
    </g>
   </g>
   <g id="matplotlib.axis_2">
    <g id="ytick_1">
     <g id="line2d_5">
      <defs>
       <path id="m844f2ec2b4" d="M 0 0 
L -3.5 0 
" style="stroke: #000000; stroke-width: 0.8"/>
      </defs>
      <g>
       <use xlink:href="#m844f2ec2b4" x="75.79375" y="213.612674" style="stroke: #000000; stroke-width: 0.8"/>
      </g>
     </g>
     <g id="text_6">
      <!-- 0.00 -->
      <g transform="translate(35.395313 219.311502)scale(0.15 -0.15)">
       <defs>
        <path id="DejaVuSans-30" d="M 2034 4250 
Q 1547 4250 1301 3770 
Q 1056 3291 1056 2328 
Q 1056 1369 1301 889 
Q 1547 409 2034 409 
Q 2525 409 2770 889 
Q 3016 1369 3016 2328 
Q 3016 3291 2770 3770 
Q 2525 4250 2034 4250 
z
M 2034 4750 
Q 2819 4750 3233 4129 
Q 3647 3509 3647 2328 
Q 3647 1150 3233 529 
Q 2819 -91 2034 -91 
Q 1250 -91 836 529 
Q 422 1150 422 2328 
Q 422 3509 836 4129 
Q 1250 4750 2034 4750 
z
" transform="scale(0.015625)"/>
        <path id="DejaVuSans-2e" d="M 684 794 
L 1344 794 
L 1344 0 
L 684 0 
L 684 794 
z
" transform="scale(0.015625)"/>
       </defs>
       <use xlink:href="#DejaVuSans-30"/>
       <use xlink:href="#DejaVuSans-2e" x="63.623047"/>
       <use xlink:href="#DejaVuSans-30" x="95.410156"/>
       <use xlink:href="#DejaVuSans-30" x="159.033203"/>
      </g>
     </g>
    </g>
    <g id="ytick_2">
     <g id="line2d_6">
      <g>
       <use xlink:href="#m844f2ec2b4" x="75.79375" y="180.160367" style="stroke: #000000; stroke-width: 0.8"/>
      </g>
     </g>
     <g id="text_7">
      <!-- 0.05 -->
      <g transform="translate(35.395313 185.859195)scale(0.15 -0.15)">
       <defs>
        <path id="DejaVuSans-35" d="M 691 4666 
L 3169 4666 
L 3169 4134 
L 1269 4134 
L 1269 2991 
Q 1406 3038 1543 3061 
Q 1681 3084 1819 3084 
Q 2600 3084 3056 2656 
Q 3513 2228 3513 1497 
Q 3513 744 3044 326 
Q 2575 -91 1722 -91 
Q 1428 -91 1123 -41 
Q 819 9 494 109 
L 494 744 
Q 775 591 1075 516 
Q 1375 441 1709 441 
Q 2250 441 2565 725 
Q 2881 1009 2881 1497 
Q 2881 1984 2565 2268 
Q 2250 2553 1709 2553 
Q 1456 2553 1204 2497 
Q 953 2441 691 2322 
L 691 4666 
z
" transform="scale(0.015625)"/>
       </defs>
       <use xlink:href="#DejaVuSans-30"/>
       <use xlink:href="#DejaVuSans-2e" x="63.623047"/>
       <use xlink:href="#DejaVuSans-30" x="95.410156"/>
       <use xlink:href="#DejaVuSans-35" x="159.033203"/>
      </g>
     </g>
    </g>
    <g id="ytick_3">
     <g id="line2d_7">
      <g>
       <use xlink:href="#m844f2ec2b4" x="75.79375" y="146.708059" style="stroke: #000000; stroke-width: 0.8"/>
      </g>
     </g>
     <g id="text_8">
      <!-- 0.10 -->
      <g transform="translate(35.395313 152.406887)scale(0.15 -0.15)">
       <use xlink:href="#DejaVuSans-30"/>
       <use xlink:href="#DejaVuSans-2e" x="63.623047"/>
       <use xlink:href="#DejaVuSans-31" x="95.410156"/>
       <use xlink:href="#DejaVuSans-30" x="159.033203"/>
      </g>
     </g>
    </g>
    <g id="ytick_4">
     <g id="line2d_8">
      <g>
       <use xlink:href="#m844f2ec2b4" x="75.79375" y="113.255751" style="stroke: #000000; stroke-width: 0.8"/>
      </g>
     </g>
     <g id="text_9">
      <!-- 0.15 -->
      <g transform="translate(35.395313 118.954579)scale(0.15 -0.15)">
       <use xlink:href="#DejaVuSans-30"/>
       <use xlink:href="#DejaVuSans-2e" x="63.623047"/>
       <use xlink:href="#DejaVuSans-31" x="95.410156"/>
       <use xlink:href="#DejaVuSans-35" x="159.033203"/>
      </g>
     </g>
    </g>
    <g id="ytick_5">
     <g id="line2d_9">
      <g>
       <use xlink:href="#m844f2ec2b4" x="75.79375" y="79.803444" style="stroke: #000000; stroke-width: 0.8"/>
      </g>
     </g>
     <g id="text_10">
      <!-- 0.20 -->
      <g transform="translate(35.395313 85.502272)scale(0.15 -0.15)">
       <use xlink:href="#DejaVuSans-30"/>
       <use xlink:href="#DejaVuSans-2e" x="63.623047"/>
       <use xlink:href="#DejaVuSans-32" x="95.410156"/>
       <use xlink:href="#DejaVuSans-30" x="159.033203"/>
      </g>
     </g>
    </g>
    <g id="ytick_6">
     <g id="line2d_10">
      <g>
       <use xlink:href="#m844f2ec2b4" x="75.79375" y="46.351136" style="stroke: #000000; stroke-width: 0.8"/>
      </g>
     </g>
     <g id="text_11">
      <!-- 0.25 -->
      <g transform="translate(35.395313 52.049964)scale(0.15 -0.15)">
       <use xlink:href="#DejaVuSans-30"/>
       <use xlink:href="#DejaVuSans-2e" x="63.623047"/>
       <use xlink:href="#DejaVuSans-32" x="95.410156"/>
       <use xlink:href="#DejaVuSans-35" x="159.033203"/>
      </g>
     </g>
    </g>
    <g id="ytick_7">
     <g id="line2d_11">
      <g>
       <use xlink:href="#m844f2ec2b4" x="75.79375" y="12.898828" style="stroke: #000000; stroke-width: 0.8"/>
      </g>
     </g>
     <g id="text_12">
      <!-- 0.30 -->
      <g transform="translate(35.395313 18.597656)scale(0.15 -0.15)">
       <defs>
        <path id="DejaVuSans-33" d="M 2597 2516 
Q 3050 2419 3304 2112 
Q 3559 1806 3559 1356 
Q 3559 666 3084 287 
Q 2609 -91 1734 -91 
Q 1441 -91 1130 -33 
Q 819 25 488 141 
L 488 750 
Q 750 597 1062 519 
Q 1375 441 1716 441 
Q 2309 441 2620 675 
Q 2931 909 2931 1356 
Q 2931 1769 2642 2001 
Q 2353 2234 1838 2234 
L 1294 2234 
L 1294 2753 
L 1863 2753 
Q 2328 2753 2575 2939 
Q 2822 3125 2822 3475 
Q 2822 3834 2567 4026 
Q 2313 4219 1838 4219 
Q 1578 4219 1281 4162 
Q 984 4106 628 3988 
L 628 4550 
Q 988 4650 1302 4700 
Q 1616 4750 1894 4750 
Q 2613 4750 3031 4423 
Q 3450 4097 3450 3541 
Q 3450 3153 3228 2886 
Q 3006 2619 2597 2516 
z
" transform="scale(0.015625)"/>
       </defs>
       <use xlink:href="#DejaVuSans-30"/>
       <use xlink:href="#DejaVuSans-2e" x="63.623047"/>
       <use xlink:href="#DejaVuSans-33" x="95.410156"/>
       <use xlink:href="#DejaVuSans-30" x="159.033203"/>
      </g>
     </g>
    </g>
    <g id="text_13">
     <!-- Intensity -->
     <g transform="translate(26.196094 176.025078)rotate(-90)scale(0.25 -0.25)">
      <defs>
       <path id="DejaVuSans-74" d="M 1172 4494 
L 1172 3500 
L 2356 3500 
L 2356 3053 
L 1172 3053 
L 1172 1153 
Q 1172 725 1289 603 
Q 1406 481 1766 481 
L 2356 481 
L 2356 0 
L 1766 0 
Q 1100 0 847 248 
Q 594 497 594 1153 
L 594 3053 
L 172 3053 
L 172 3500 
L 594 3500 
L 594 4494 
L 1172 4494 
z
" transform="scale(0.015625)"/>
       <path id="DejaVuSans-79" d="M 2059 -325 
Q 1816 -950 1584 -1140 
Q 1353 -1331 966 -1331 
L 506 -1331 
L 506 -850 
L 844 -850 
Q 1081 -850 1212 -737 
Q 1344 -625 1503 -206 
L 1606 56 
L 191 3500 
L 800 3500 
L 1894 763 
L 2988 3500 
L 3597 3500 
L 2059 -325 
z
" transform="scale(0.015625)"/>
      </defs>
      <use xlink:href="#DejaVuSans-49"/>
      <use xlink:href="#DejaVuSans-6e" x="29.492188"/>
      <use xlink:href="#DejaVuSans-74" x="92.871094"/>
      <use xlink:href="#DejaVuSans-65" x="132.080078"/>
      <use xlink:href="#DejaVuSans-6e" x="193.603516"/>
      <use xlink:href="#DejaVuSans-73" x="256.982422"/>
      <use xlink:href="#DejaVuSans-69" x="309.082031"/>
      <use xlink:href="#DejaVuSans-74" x="336.865234"/>
      <use xlink:href="#DejaVuSans-79" x="376.074219"/>
     </g>
    </g>
   </g>
   <g id="line2d_12">
    <path d="M 117.64375 220.263001 
L 117.64375 45.814434 
" clip-path="url(#pb5cb73eb02)" style="fill: none; stroke: #3d3d3d; stroke-width: 1.5; stroke-linecap: square"/>
   </g>
   <g id="line2d_13">
    <path d="M 117.64375 160.596738 
L 117.64375 114.682262 
" clip-path="url(#pb5cb73eb02)" style="fill: none; stroke: #3d3d3d; stroke-width: 4.5; stroke-linecap: square"/>
   </g>
   <g id="line2d_14">
    <path d="M 201.34375 220.333004 
L 201.34375 84.868578 
" clip-path="url(#pb5cb73eb02)" style="fill: none; stroke: #3d3d3d; stroke-width: 1.5; stroke-linecap: square"/>
   </g>
   <g id="line2d_15">
    <path d="M 201.34375 181.778613 
L 201.34375 142.994764 
" clip-path="url(#pb5cb73eb02)" style="fill: none; stroke: #3d3d3d; stroke-width: 4.5; stroke-linecap: square"/>
   </g>
   <g id="line2d_16">
    <path d="M 285.04375 220.441898 
L 285.04375 100.074886 
" clip-path="url(#pb5cb73eb02)" style="fill: none; stroke: #3d3d3d; stroke-width: 1.5; stroke-linecap: square"/>
   </g>
   <g id="line2d_17">
    <path d="M 285.04375 190.589323 
L 285.04375 154.381991 
" clip-path="url(#pb5cb73eb02)" style="fill: none; stroke: #3d3d3d; stroke-width: 4.5; stroke-linecap: square"/>
   </g>
   <g id="line2d_18">
    <path d="M 368.74375 220.410786 
L 368.74375 81.842875 
" clip-path="url(#pb5cb73eb02)" style="fill: none; stroke: #3d3d3d; stroke-width: 1.5; stroke-linecap: square"/>
   </g>
   <g id="line2d_19">
    <path d="M 368.74375 187.291384 
L 368.74375 145.110425 
" clip-path="url(#pb5cb73eb02)" style="fill: none; stroke: #3d3d3d; stroke-width: 4.5; stroke-linecap: square"/>
   </g>
   <g id="patch_3">
    <path d="M 75.79375 230.338828 
L 75.79375 12.898828 
" style="fill: none; stroke: #000000; stroke-width: 0.8; stroke-linejoin: miter; stroke-linecap: square"/>
   </g>
   <g id="patch_4">
    <path d="M 410.59375 230.338828 
L 410.59375 12.898828 
" style="fill: none; stroke: #000000; stroke-width: 0.8; stroke-linejoin: miter; stroke-linecap: square"/>
   </g>
   <g id="patch_5">
    <path d="M 75.79375 230.338828 
L 410.59375 230.338828 
" style="fill: none; stroke: #000000; stroke-width: 0.8; stroke-linejoin: miter; stroke-linecap: square"/>
   </g>
   <g id="patch_6">
    <path d="M 75.79375 12.898828 
L 410.59375 12.898828 
" style="fill: none; stroke: #000000; stroke-width: 0.8; stroke-linejoin: miter; stroke-linecap: square"/>
   </g>
   <g id="PathCollection_1">
    <defs>
     <path id="me9553fa546" d="M 0 1.5 
C 0.397805 1.5 0.77937 1.341951 1.06066 1.06066 
C 1.341951 0.77937 1.5 0.397805 1.5 0 
C 1.5 -0.397805 1.341951 -0.77937 1.06066 -1.06066 
C 0.77937 -1.341951 0.397805 -1.5 0 -1.5 
C -0.397805 -1.5 -0.77937 -1.341951 -1.06066 -1.06066 
C -1.341951 -0.77937 -1.5 -0.397805 -1.5 0 
C -1.5 0.397805 -1.341951 0.77937 -1.06066 1.06066 
C -0.77937 1.341951 -0.397805 1.5 0 1.5 
z
" style="stroke: #3d3d3d"/>
    </defs>
    <g clip-path="url(#pb5cb73eb02)">
     <use xlink:href="#me9553fa546" x="117.64375" y="138.66233" style="fill: #ffffff; stroke: #3d3d3d"/>
    </g>
   </g>
   <g id="PathCollection_2">
    <g clip-path="url(#pb5cb73eb02)">
     <use xlink:href="#me9553fa546" x="201.34375" y="163.490215" style="fill: #ffffff; stroke: #3d3d3d"/>
    </g>
   </g>
   <g id="PathCollection_3">
    <g clip-path="url(#pb5cb73eb02)">
     <use xlink:href="#me9553fa546" x="285.04375" y="173.741828" style="fill: #ffffff; stroke: #3d3d3d"/>
    </g>
   </g>
   <g id="PathCollection_4">
    <g clip-path="url(#pb5cb73eb02)">
     <use xlink:href="#me9553fa546" x="368.74375" y="168.561578" style="fill: #ffffff; stroke: #3d3d3d"/>
    </g>
   </g>
  </g>
 </g>
 <defs>
  <clipPath id="pb5cb73eb02">
   <rect x="75.79375" y="12.898828" width="334.8" height="217.44"/>
  </clipPath>
 </defs>
</svg>
